<svg xmlns="http://www.w3.org/2000/svg" id="Layer_1" data-name="Layer 1" viewBox="0 0 295.45 206.5">
    <defs>
        <style>
            .cls-1,.cls-2,.cls-3,.cls-5{fill:#fff;}.cls-1{opacity:0.35;}.cls-2,.cls-4{opacity:0.4;}.cls-3{opacity:0.25;}
        </style>
    </defs>
    <title>
        website-headers-v02
    </title>
    <path d="M20.52,205.67a1,1,0,0,1,.3-1.38h0a1,1,0,0,1,1.38.3h0a1,1,0,0,1-.3,1.38h0a1,1,0,0,1-.54.16h0A1,1,0,0,1,20.52,205.67Zm4.2-2.71a1,1,0,0,1,.3-1.38h0a1,1,0,0,1,1.39.3h0a1,1,0,0,1-.31,1.38h0a.94.94,0,0,1-.53.16h0A1,1,0,0,1,24.72,203Zm4.21-2.7a1,1,0,0,1,.29-1.38h0a1,1,0,0,1,1.39.29h0a1,1,0,0,1-.3,1.38h0a1,1,0,0,1-.54.16h0A1,1,0,0,1,28.93,200.26Zm4.19-2.71a1,1,0,0,1,.31-1.38h0a1,1,0,0,1,1.38.29h0a1,1,0,0,1-.3,1.39h0A1.09,1.09,0,0,1,34,198h0A1,1,0,0,1,33.12,197.55Zm4.21-2.71a1,1,0,0,1,.29-1.38h0a1,1,0,0,1,1.39.3h0a1,1,0,0,1-.29,1.38h0a1,1,0,0,1-.55.16h0A1,1,0,0,1,37.33,194.84Zm4.21-2.71a1,1,0,0,1,.29-1.38h0a1,1,0,0,1,1.39.3h0a1,1,0,0,1-.3,1.38h0a1,1,0,0,1-.54.16h0A1,1,0,0,1,41.54,192.13Zm4.2-2.71A1,1,0,0,1,46,188h0a1,1,0,0,1,1.38.3h0a1,1,0,0,1-.3,1.38h0a1,1,0,0,1-.54.16h0A1,1,0,0,1,45.74,189.42Zm4.2-2.7a1,1,0,0,1,.3-1.39h0a1,1,0,0,1,1.38.3h0a1,1,0,0,1-.3,1.38h0a1,1,0,0,1-.54.16h0A1,1,0,0,1,49.94,186.72ZM54.15,184a1,1,0,0,1,.29-1.38h0a1,1,0,0,1,1.39.3h0a1,1,0,0,1-.3,1.38h0a1,1,0,0,1-.54.16h0A1,1,0,0,1,54.15,184Zm4.2-2.71a1,1,0,0,1,.3-1.38h0a1,1,0,0,1,1.38.3h0a1,1,0,0,1-.3,1.38h0a1,1,0,0,1-.54.16h0A1,1,0,0,1,58.35,181.3Zm4.2-2.71a1,1,0,0,1,.3-1.38h0a1,1,0,0,1,1.38.3h0a1,1,0,0,1-.3,1.38h0a1,1,0,0,1-.54.16h0A1,1,0,0,1,62.55,178.59Zm4.2-2.71a1,1,0,0,1,.3-1.38h0a1,1,0,0,1,1.39.3h0a1,1,0,0,1-.3,1.38h0a1,1,0,0,1-.54.16h0A1,1,0,0,1,66.75,175.88Zm4.21-2.7a1,1,0,0,1,.3-1.39h0a1,1,0,0,1,1.38.3h0a1,1,0,0,1-.31,1.38h0a.94.94,0,0,1-.53.16h0A1,1,0,0,1,71,173.18Zm4.2-2.71a1,1,0,0,1,.3-1.38h0a1,1,0,0,1,1.37.29h0a1,1,0,0,1-.29,1.39h0a1,1,0,0,1-.54.16h0A1,1,0,0,1,75.16,170.47Zm4.21-2.71a1,1,0,0,1,.29-1.38h0a1,1,0,0,1,1.38.3h0a1,1,0,0,1-.29,1.38h0a1,1,0,0,1-.54.16h0A1,1,0,0,1,79.37,167.76Zm4.2-2.71a1,1,0,0,1,.3-1.38h0a1,1,0,0,1,1.38.3h0a1,1,0,0,1-.3,1.38h0a1,1,0,0,1-.54.16h0A1,1,0,0,1,83.57,165.05Zm4.2-2.71a1,1,0,0,1,.3-1.38h0a1,1,0,0,1,1.38.3h0a1,1,0,0,1-.3,1.38h0a1,1,0,0,1-.54.16h0A1,1,0,0,1,87.77,162.34Zm4.2-2.7a1,1,0,0,1,.3-1.39h0a1,1,0,0,1,1.39.3h0a1,1,0,0,1-.31,1.38h0a1,1,0,0,1-.53.17h0A1,1,0,0,1,92,159.64Zm4.21-2.71a1,1,0,0,1,.29-1.39h0a1,1,0,0,1,1.39.3h0a1,1,0,0,1-.3,1.39h0a1.09,1.09,0,0,1-.54.16h0A1,1,0,0,1,96.18,156.93Zm4.2-2.71a1,1,0,0,1,.3-1.38h0a1,1,0,0,1,1.38.3h0a1,1,0,0,1-.3,1.38h0a1,1,0,0,1-.54.16h0A1,1,0,0,1,100.38,154.22Zm4.2-2.71a1,1,0,0,1,.3-1.38h0a1,1,0,0,1,1.38.3h0a1,1,0,0,1-.29,1.38h0a1,1,0,0,1-.55.16h0A1,1,0,0,1,104.58,151.51Zm4.21-2.71a1,1,0,0,1,.29-1.38h0a1,1,0,0,1,1.39.3h0a1,1,0,0,1-.3,1.38h0a1,1,0,0,1-.55.16h0A1,1,0,0,1,108.79,148.8Zm4.2-2.7a1,1,0,0,1,.3-1.39h0a1,1,0,0,1,1.38.3h0a1,1,0,0,1-.3,1.38h0a1,1,0,0,1-.54.16h0A1,1,0,0,1,113,146.1Zm4.2-2.71a1,1,0,0,1,.3-1.39h0a1,1,0,0,1,1.38.3h0a1,1,0,0,1-.3,1.39h0a1,1,0,0,1-.54.16h0A1,1,0,0,1,117.19,143.39Zm4.21-2.71a1,1,0,0,1,.29-1.38h0a1,1,0,0,1,1.39.3h0a1,1,0,0,1-.3,1.38h0a1,1,0,0,1-.54.16h0A1,1,0,0,1,121.4,140.68Zm4.2-2.71a1,1,0,0,1,.3-1.38h0a1,1,0,0,1,1.38.3h0a1,1,0,0,1-.3,1.38h0a1,1,0,0,1-.54.16h0A1,1,0,0,1,125.6,138Zm4.2-2.71a1,1,0,0,1,.3-1.38h0a1,1,0,0,1,1.38.3h0a1,1,0,0,1-.3,1.38h0a1,1,0,0,1-.54.16h0A1,1,0,0,1,129.8,135.26Zm4.2-2.71a1,1,0,0,1,.3-1.38h0a1,1,0,0,1,1.39.3h0a1,1,0,0,1-.3,1.38h0a1,1,0,0,1-.54.16h0A1,1,0,0,1,134,132.55Zm4.21-2.7a1,1,0,0,1,.3-1.38h0a1,1,0,0,1,1.38.29h0a1,1,0,0,1-.31,1.38h0a1,1,0,0,1-.53.17h0A1,1,0,0,1,138.21,129.85Zm4.2-2.71a1,1,0,0,1,.3-1.38h0a1,1,0,0,1,1.37.29h0a1,1,0,0,1-.29,1.39h0a1,1,0,0,1-.54.16h0A1,1,0,0,1,142.41,127.14Zm4.21-2.71a1,1,0,0,1,.29-1.38h0a1,1,0,0,1,1.38.3h0a1,1,0,0,1-.29,1.38h0a1,1,0,0,1-.54.16h0A1,1,0,0,1,146.62,124.43Zm4.2-2.71a1,1,0,0,1,.3-1.38h0a1,1,0,0,1,1.38.3h0a1,1,0,0,1-.3,1.38h0a1,1,0,0,1-.54.16h0A1,1,0,0,1,150.82,121.72ZM155,119a1,1,0,0,1,.3-1.38h0a1,1,0,0,1,1.38.3h0a1,1,0,0,1-.3,1.38h0a1,1,0,0,1-.54.16h0A1,1,0,0,1,155,119Zm4.2-2.71a1,1,0,0,1,.3-1.38h0a1,1,0,0,1,1.39.3h0a1,1,0,0,1-.3,1.39h0a1.09,1.09,0,0,1-.54.16h0A1,1,0,0,1,159.22,116.3Zm4.21-2.7a1,1,0,0,1,.29-1.38h0a1,1,0,0,1,1.39.3h0a1,1,0,0,1-.3,1.38h0a1,1,0,0,1-.54.16h0A1,1,0,0,1,163.43,113.6Zm4.19-2.71a1,1,0,0,1,.31-1.38h0a1,1,0,0,1,1.38.3h0a1,1,0,0,1-.3,1.38h0a1,1,0,0,1-.54.16h0A1,1,0,0,1,167.62,110.89Zm4.21-2.71a1,1,0,0,1,.29-1.38h0a1,1,0,0,1,1.39.3h0a1,1,0,0,1-.29,1.38h0a1,1,0,0,1-.55.16h0A1,1,0,0,1,171.83,108.18Zm4.21-2.71a1,1,0,0,1,.29-1.38h0a1,1,0,0,1,1.39.3h0a1,1,0,0,1-.3,1.38h0a1,1,0,0,1-.54.16h0A1,1,0,0,1,176,105.47Zm4.2-2.7a1,1,0,0,1,.3-1.38h0a1,1,0,0,1,1.38.29h0a1,1,0,0,1-.3,1.38h0a1,1,0,0,1-.54.16h0A1,1,0,0,1,180.24,102.77Zm4.2-2.71a1,1,0,0,1,.3-1.38h0a1,1,0,0,1,1.38.29h0a1,1,0,0,1-.3,1.39h0a1,1,0,0,1-.54.16h0A1,1,0,0,1,184.44,100.06Zm4.21-2.71a1,1,0,0,1,.29-1.38h0a1,1,0,0,1,1.39.3h0a1,1,0,0,1-.3,1.38h0a1,1,0,0,1-.54.16h0A1,1,0,0,1,188.65,97.35Zm4.2-2.71a1,1,0,0,1,.3-1.38h0a1,1,0,0,1,1.38.3h0a1,1,0,0,1-.3,1.38h0a1,1,0,0,1-.54.16h0A1,1,0,0,1,192.85,94.64Zm4.2-2.71a1,1,0,0,1,.3-1.38h0a1,1,0,0,1,1.38.3h0a1,1,0,0,1-.3,1.38h0a1,1,0,0,1-.54.16h0A1,1,0,0,1,197.05,91.93Zm4.2-2.71a1,1,0,0,1,.3-1.38h0a1,1,0,0,1,1.39.3h0a1,1,0,0,1-.3,1.38h0a1,1,0,0,1-.54.16h0A1,1,0,0,1,201.25,89.22Zm4.21-2.7a1,1,0,0,1,.3-1.38h0a1,1,0,0,1,1.38.29h0a1,1,0,0,1-.31,1.39h0a.93.93,0,0,1-.54.16h0A1,1,0,0,1,205.46,86.52Zm4.2-2.71a1,1,0,0,1,.3-1.38h0a1,1,0,0,1,1.37.3h0a1,1,0,0,1-.29,1.38h0a1,1,0,0,1-.54.16h0A1,1,0,0,1,209.66,83.81Zm4.21-2.71a1,1,0,0,1,.29-1.38h0a1,1,0,0,1,1.38.3h0a1,1,0,0,1-.29,1.38h0a1,1,0,0,1-.54.16h0A1,1,0,0,1,213.87,81.1Zm4.2-2.71a1,1,0,0,1,.3-1.38h0a1,1,0,0,1,1.38.3h0a1,1,0,0,1-.3,1.38h0a1,1,0,0,1-.54.16h0A1,1,0,0,1,218.07,78.39Zm4.2-2.7a1,1,0,0,1,.3-1.39h0a1,1,0,0,1,1.38.3h0a1,1,0,0,1-.3,1.38h0a1,1,0,0,1-.54.16h0A1,1,0,0,1,222.27,75.69Zm4.2-2.71a1,1,0,0,1,.3-1.38h0a1,1,0,0,1,1.39.29h0a1,1,0,0,1-.3,1.39h0a1.09,1.09,0,0,1-.54.16h0A1,1,0,0,1,226.47,73Zm4.21-2.71a1,1,0,0,1,.29-1.38h0a1,1,0,0,1,1.39.3h0a1,1,0,0,1-.3,1.38h0a1,1,0,0,1-.54.16h0A1,1,0,0,1,230.68,70.27Zm4.2-2.71a1,1,0,0,1,.3-1.38h0a1,1,0,0,1,1.38.3h0a1,1,0,0,1-.3,1.38h0a1,1,0,0,1-.54.16h0A1,1,0,0,1,234.88,67.56Zm4.2-2.71a1,1,0,0,1,.3-1.38h0a1,1,0,0,1,1.38.3h0a1,1,0,0,1-.29,1.38h0a1,1,0,0,1-.55.16h0A1,1,0,0,1,239.08,64.85Zm4.21-2.7a1,1,0,0,1,.29-1.39h0a1,1,0,0,1,1.39.3h0a1,1,0,0,1-.3,1.38h0a1,1,0,0,1-.55.16h0A1,1,0,0,1,243.29,62.15Zm4.2-2.71a1,1,0,0,1,.3-1.38h0a1,1,0,0,1,1.38.29h0a1,1,0,0,1-.3,1.39h0a1.06,1.06,0,0,1-.54.16h0A1,1,0,0,1,247.49,59.44Zm4.2-2.71a1,1,0,0,1,.3-1.38h0a1,1,0,0,1,1.38.29h0a1,1,0,0,1-.3,1.39h0a1,1,0,0,1-.54.16h0A1,1,0,0,1,251.69,56.73ZM255.9,54a1,1,0,0,1,.29-1.38h0a1,1,0,0,1,1.39.3h0a1,1,0,0,1-.3,1.38h0a1,1,0,0,1-.54.16h0A1,1,0,0,1,255.9,54Zm4.2-2.71a1,1,0,0,1,.3-1.38h0a1,1,0,0,1,1.38.3h0a1,1,0,0,1-.3,1.38h0a1,1,0,0,1-.54.16h0A1,1,0,0,1,260.1,51.31Zm4.19-2.71a1,1,0,0,1,.31-1.38h0a1,1,0,0,1,1.38.3h0a1,1,0,0,1-.3,1.38h0a1,1,0,0,1-.54.16h0A1,1,0,0,1,264.29,48.6Zm4.21-2.7a1,1,0,0,1,.29-1.39h0a1,1,0,0,1,1.4.3h0a1,1,0,0,1-.3,1.39h0a1.08,1.08,0,0,1-.54.15h0A1,1,0,0,1,268.5,45.9Zm4.21-2.71a1,1,0,0,1,.3-1.38h0a1,1,0,0,1,1.38.3h0a1,1,0,0,1-.31,1.38h0a.93.93,0,0,1-.54.16h0A1,1,0,0,1,272.71,43.19Z" class="cls-1"/>
    <path d="M218.13,204.32l-4.58-6.56,1.23-.86,4.58,6.56ZM209,191.19l-4.58-6.56,1.23-.86,4.58,6.57Zm-9.15-13.12-4.57-6.57,1.23-.85,4.57,6.56Zm-9.15-13.13-4.57-6.56,1.23-.86,4.57,6.56Zm-9.15-13.13L177,145.25l1.23-.86,4.57,6.57Zm-9.15-13.12-4.57-6.57,1.23-.85,4.58,6.56Zm-9.14-13.13L158.66,119l1.23-.86,4.58,6.56Zm-9.15-13.13-4.58-6.56,1.24-.86,4.57,6.57Zm-9.15-13.12-4.57-6.57,1.23-.85,4.57,6.56Zm-9.15-13.13-4.57-6.56,1.23-.86L137,85.32Zm-9.15-13.13-4.57-6.56,1.23-.86,4.57,6.57ZM117.5,59.93l-4.58-6.57,1.23-.85,4.58,6.56ZM108.35,46.8l-4.58-6.56,1.23-.86,4.58,6.56ZM99.2,33.67l-4.58-6.56,1.24-.86,4.57,6.57ZM90.05,20.55,85.48,14l1.23-.85,4.57,6.56ZM80.9,7.42,76.33.86,77.56,0l4.57,6.56Z" class="cls-1"/>
    <path d="M275.24,61.22c-.58,0-1.17,0-1.75-.07a20.25,20.25,0,1,1,21.89-18.47l-.75-.06.75.06a20.25,20.25,0,0,1-20.14,18.54Zm-.05-39a18.75,18.75,0,1,0,18.69,20.33h0a18.74,18.74,0,0,0-17.09-20.26C276.25,22.24,275.72,22.22,275.19,22.22Z" class="cls-1"/>
    <path d="M273.57,54.14A1,1,0,0,1,272.7,53h0a1,1,0,0,1,1.11-.87h0a1,1,0,0,1,.87,1.11h0a1,1,0,0,1-1,.88h-.12ZM277.82,53a1,1,0,0,1,.66-1.24h0a1,1,0,0,1,1.25.66h0a1,1,0,0,1-.66,1.25h0a1,1,0,0,1-.3,0h0A1,1,0,0,1,277.82,53Zm-9.47-.66A1,1,0,0,1,268,51h0a1,1,0,0,1,1.37-.34h0a1,1,0,0,1,.34,1.37h0a1,1,0,0,1-.86.48h0A1,1,0,0,1,268.35,52.34Zm14.13-1.44a1,1,0,0,1,.1-1.41h0a1,1,0,0,1,1.41.1h0a1,1,0,0,1-.1,1.41h0a1,1,0,0,1-.65.25h0A1,1,0,0,1,282.48,50.9Zm-18.15-2.32h0a1,1,0,0,1,.24-1.39h0a1,1,0,0,1,1.4.25h0a1,1,0,0,1-.25,1.39h0a1,1,0,0,1-.57.18h0A1,1,0,0,1,264.33,48.58Zm21.56-1.49a1,1,0,0,1-.48-1.33h0a1,1,0,0,1,1.33-.48h0a1,1,0,0,1,.48,1.33h0a1,1,0,0,1-.9.57h0A1.07,1.07,0,0,1,285.89,47.09ZM262.17,43.5a1,1,0,0,1,.8-1.17h0a1,1,0,0,1,1.17.79h0a1,1,0,0,1-.79,1.17h0l-.19,0h0A1,1,0,0,1,262.17,43.5Zm25.28-1.28a1,1,0,0,1-1-1h0v0h0a1,1,0,0,1,1-1h0a1,1,0,0,1,1,1h0v0h0v0h0a1,1,0,0,1-1,1h0Zm-24.43-3a1,1,0,0,1-.75-1.2h0a1,1,0,0,1,1.2-.75h0a1,1,0,0,1,.75,1.2h0a1,1,0,0,1-1,.78h0A.91.91,0,0,1,263,39.18Zm22.55-2.63a1,1,0,0,1,.53-1.31h0a1,1,0,0,1,1.31.53h0a1,1,0,0,1-.52,1.31h0a1.13,1.13,0,0,1-.39.08h0A1,1,0,0,1,285.57,36.55Zm-20.78-2.16a1,1,0,0,1-.18-1.4h0a1,1,0,0,1,1.4-.2h0a1,1,0,0,1,.19,1.4h0a1,1,0,0,1-.8.4h0A1.08,1.08,0,0,1,264.79,34.39Zm18.09-1.67a1,1,0,0,1-.05-1.42h0a1,1,0,0,1,1.42,0h0a1,1,0,0,1,0,1.41h0a1,1,0,0,1-.73.32h0A1,1,0,0,1,282.88,32.72Zm-14.5-2a1,1,0,0,1,.38-1.36h0a1,1,0,0,1,1.36.39h0a1,1,0,0,1-.38,1.36h0a1,1,0,0,1-.49.13h0A1,1,0,0,1,268.38,30.72Zm10.48-.41a1,1,0,0,1-.62-1.27h0a1,1,0,0,1,1.27-.62h0a1,1,0,0,1,.61,1.27h0a1,1,0,0,1-.93.67h0A1,1,0,0,1,278.86,30.31Zm-5.74-1.48a1,1,0,0,1,.92-1.08h0a1,1,0,0,1,1.08.91h0a1,1,0,0,1-.91,1.08h-.09A1,1,0,0,1,273.12,28.83Z" class="cls-1"/>
    <path d="M173.88,116.28H181a3.51,3.51,0,0,1,3.51,3.51v3.84a0,0,0,0,1,0,0H170.37a0,0,0,0,1,0,0V119.8A3.51,3.51,0,0,1,173.88,116.28Z" class="cls-2"/>
    <rect width="18.36" height="4.9" x="189.97" y="118.73" class="cls-2"/>
    <path d="M260.58,125.27v10.61h17.63V125.27Zm8.85,8.16a2.72,2.72,0,1,1,2.72-2.72A2.72,2.72,0,0,1,269.43,133.43Z" class="cls-2"/>
    <path d="M152.14,201.47H288.21a0,0,0,0,1,0,0v3.38a1.66,1.66,0,0,1-1.66,1.66H153.8a1.66,1.66,0,0,1-1.66-1.66v-3.38A0,0,0,0,1,152.14,201.47Z" class="cls-3"/>
    <path d="M177.45,147a2.45,2.45,0,1,1,2.45-2.45A2.45,2.45,0,0,1,177.45,147Z" class="cls-3"/>
    <g class="cls-4">
        <path d="M234.27,144.78a27.67,27.67,0,1,1-28.44,0H184.51a7.07,7.07,0,0,1-14.13,0H152.14v56.69H288.21V144.78Z" class="cls-5"/>
    </g>
    <path d="M220.05,144.78a23.74,23.74,0,1,0,23.74,23.74A23.74,23.74,0,0,0,220.05,144.78Zm0,40.22a16.48,16.48,0,1,1,16.48-16.48A16.48,16.48,0,0,1,220.05,185Z" class="cls-3"/>
    <path d="M286.55,116.28H215a1.66,1.66,0,0,0-1.66,1.66v4a1.66,1.66,0,0,1-1.66,1.66H153.8a1.66,1.66,0,0,0-1.66,1.66v19.49h18.24c0-.06,0-.13,0-.19a7.08,7.08,0,1,1,14.15,0c0,.06,0,.13,0,.19h21.24a27.74,27.74,0,0,1,28.6,0h53.86V117.94A1.66,1.66,0,0,0,286.55,116.28Zm-80.33,19.21A1.21,1.21,0,0,1,205,136.7H193.27a1.21,1.21,0,0,1-1.2-1.21v-4.94a1.2,1.2,0,0,1,1.2-1.2H205a1.21,1.21,0,0,1,1.21,1.2Zm77.09,1.81a2.66,2.66,0,0,1-2.66,2.66H258.14a2.66,2.66,0,0,1-2.66-2.66V123.84a2.66,2.66,0,0,1,2.66-2.66h22.51a2.66,2.66,0,0,1,2.66,2.66Z" class="cls-3"/>
    <path d="M220.05,152a16.48,16.48,0,1,0,16.48,16.48A16.48,16.48,0,0,0,220.05,152Zm0,21.58a5.1,5.1,0,1,1,5.1-5.1A5.1,5.1,0,0,1,220.05,173.62Z" class="cls-2"/>
    <path d="M47.06,29.65v102.1h84.27V29.65Zm79.61,73H51.72V35.3h75Z" class="cls-2"/>
    <circle cx="78.46" cy="59.43" r="7.39" class="cls-2"/>
    <polygon points="51.72 94.09 65.7 79.71 73.09 89.03 63.87 97.74 51.72 97.74 51.72 94.09" class="cls-3"/>
    <polygon points="63.87 97.74 82.92 79.71 100.74 97.74 63.87 97.74" class="cls-2"/>
    <polygon points="89.86 86.74 108.44 64.14 126.67 84.37 126.67 97.74 100.74 97.74 89.86 86.74" class="cls-3"/>
    <polygon points="110.87 131.75 53.92 131.75 29.39 140.7 6.31 77.45 47.06 62.58 47.06 56.57 0 73.74 35 169.65 114.16 140.77 110.87 131.75" class="cls-3"/>
</svg>
