<svg xmlns="http://www.w3.org/2000/svg" xmlns:xlink="http://www.w3.org/1999/xlink" id="Layer_1" data-name="Layer 1" viewBox="0 0 1500 208">
    <defs>
        <style>
            .cls-1{fill:url(#linear-gradient);}.cls-11,.cls-2,.cls-5,.cls-6,.cls-8{opacity:0.35;}.cls-11,.cls-12,.cls-3,.cls-4,.cls-5,.cls-6,.cls-7,.cls-8{fill:none;stroke:#fff;stroke-miterlimit:10;}.cls-11,.cls-12,.cls-3,.cls-4,.cls-7{stroke-linecap:round;stroke-width:2px;}.cls-4{stroke-dasharray:0 5.01;}.cls-5,.cls-6{stroke-width:1.5px;}.cls-5{stroke-dasharray:8 8;}.cls-7{stroke-dasharray:0 5.08;}.cls-10,.cls-14,.cls-9{fill:#fff;}.cls-13,.cls-9{opacity:0.4;}.cls-10{opacity:0.25;}.cls-11{stroke-dasharray:0 5;}.cls-12{stroke-dasharray:0 5.14;}
        </style>
        <linearGradient id="linear-gradient" x2="1500" y1="104" y2="104" gradientUnits="userSpaceOnUse">
            <stop offset="0" stop-color="#80c70b"/>
            <stop offset="1" stop-color="#4f9179"/>
        </linearGradient>
    </defs>
    <title>
        website-headers-v02
    </title>
    <rect width="1500" height="208" class="cls-1"/>
    <g class="cls-2">
        <line x1="1342.39" x2="1342.39" y1="208" y2="208" class="cls-3"/>
        <line x1="1342.39" x2="1342.39" y1="202.99" y2="25.17" class="cls-4"/>
        <line x1="1342.39" x2="1342.39" y1="22.66" y2="22.66" class="cls-3"/>
    </g>
    <line x1="1203.88" x2="1434.56" y1="151.01" class="cls-5"/>
    <circle cx="1203.46" cy="150.6" r="36" class="cls-6"/>
    <g class="cls-2">
        <circle cx="1203.46" cy="150.6" r="22.65" class="cls-7"/>
    </g>
    <circle cx="1342.39" cy="14.83" r="4.17" class="cls-8"/>
    <path d="M1375.22,98h-9.7V69.9a23.58,23.58,0,1,0-47.16,0V98h-9.71V69.9a33.29,33.29,0,1,1,66.57,0Z" class="cls-9"/>
    <path d="M1313.51,98H1291v64.14h101.94V98Zm35.71,48a7.11,7.11,0,0,1-14.22,0V130.06a7.11,7.11,0,0,1,14.22,0Z" class="cls-10"/>
    <rect width="101.94" height="15.26" x="1290.97" y="162.13" class="cls-9"/>
    <line x1="132.34" x2="385.01" y1="206.98" y2="44.19" class="cls-11"/>
    <line x1="329.73" x2="186.34" y1="205.74" class="cls-5"/>
    <circle cx="386.19" cy="42.82" r="19.5" class="cls-6"/>
    <g class="cls-2">
        <path d="M398.45,43.06a12.27,12.27,0,1,1-12-12.51A12.27,12.27,0,0,1,398.45,43.06Z" class="cls-12"/>
    </g>
    <path d="M284.87,118.13H292a3.51,3.51,0,0,1,3.51,3.51v3.84a0,0,0,0,1,0,0H281.36a0,0,0,0,1,0,0v-3.84A3.51,3.51,0,0,1,284.87,118.13Z" class="cls-9"/>
    <rect width="18.36" height="4.9" x="300.95" y="120.58" class="cls-9"/>
    <path d="M371.56,127.12v10.61H389.2V127.12Zm8.86,8.16a2.72,2.72,0,1,1,2.72-2.72A2.72,2.72,0,0,1,380.42,135.28Z" class="cls-9"/>
    <path d="M263.12,203.32H399.2a0,0,0,0,1,0,0v3.38a1.66,1.66,0,0,1-1.66,1.66H264.78a1.66,1.66,0,0,1-1.66-1.66v-3.38A0,0,0,0,1,263.12,203.32Z" class="cls-10"/>
    <path d="M288.43,148.89a2.45,2.45,0,1,1,2.45-2.45A2.45,2.45,0,0,1,288.43,148.89Z" class="cls-10"/>
    <g class="cls-13">
        <path d="M345.26,146.63a27.68,27.68,0,1,1-28.45,0H295.5a7.07,7.07,0,0,1-14.14,0H263.12v56.69H399.2V146.63Z" class="cls-14"/>
    </g>
    <path d="M331,146.63a23.74,23.74,0,1,0,23.74,23.74A23.74,23.74,0,0,0,331,146.63Zm0,40.22a16.48,16.48,0,1,1,16.48-16.48A16.47,16.47,0,0,1,331,186.85Z" class="cls-10"/>
    <path d="M397.54,118.13H326a1.67,1.67,0,0,0-1.66,1.66v4a1.65,1.65,0,0,1-1.65,1.66H264.78a1.66,1.66,0,0,0-1.66,1.66v19.49h18.24v-.19a7.08,7.08,0,1,1,14.15,0c0,.06,0,.13,0,.19h21.24a27.72,27.72,0,0,1,28.59,0H399.2V119.79A1.67,1.67,0,0,0,397.54,118.13ZM317.2,137.34a1.21,1.21,0,0,1-1.2,1.21H304.26a1.21,1.21,0,0,1-1.21-1.21v-4.93a1.21,1.21,0,0,1,1.21-1.21H316a1.21,1.21,0,0,1,1.2,1.21Zm77.1,1.81a2.66,2.66,0,0,1-2.66,2.66H369.12a2.66,2.66,0,0,1-2.66-2.66V125.69a2.66,2.66,0,0,1,2.66-2.66h22.52a2.66,2.66,0,0,1,2.66,2.66Z" class="cls-10"/>
    <path d="M331,153.89a16.48,16.48,0,1,0,16.48,16.48A16.47,16.47,0,0,0,331,153.89Zm0,21.58a5.1,5.1,0,1,1,5.1-5.1A5.09,5.09,0,0,1,331,175.47Z" class="cls-9"/>
    <path d="M158,31.5V133.6h84.27V31.5Zm79.61,73h-75V37.15h75Z" class="cls-9"/>
    <circle cx="189.45" cy="61.28" r="7.39" class="cls-9"/>
    <polygon points="162.7 95.94 176.68 81.56 184.07 90.88 174.86 99.59 162.7 99.59 162.7 95.94" class="cls-10"/>
    <polygon points="174.86 99.59 193.9 81.56 211.72 99.59 174.86 99.59" class="cls-9"/>
    <polygon points="200.85 88.59 219.42 65.99 237.65 86.22 237.65 99.59 211.72 99.59 200.85 88.59" class="cls-10"/>
    <polygon points="221.86 133.6 164.91 133.6 140.38 142.55 117.3 79.3 158.04 64.43 158.04 58.42 110.98 75.59 145.98 171.5 225.15 142.62 221.86 133.6" class="cls-10"/>
</svg>
