<svg xmlns="http://www.w3.org/2000/svg" id="Layer_1" data-name="Layer 1" viewBox="0 0 301.45 206.5">
    <defs>
        <style>
            .cls-1,.cls-2,.cls-3{fill:#fff;}.cls-1{opacity:0.35;}.cls-2{opacity:0.25;}.cls-3{opacity:0.4;}
        </style>
    </defs>
    <title>
        website-headers-v02
    </title>
    <path d="M26.51,205.67a1,1,0,0,1,.3-1.38h0a1,1,0,0,1,1.38.3h0a1,1,0,0,1-.3,1.38h0a1,1,0,0,1-.54.16h0A1,1,0,0,1,26.51,205.67Zm4.2-2.71a1,1,0,0,1,.3-1.38h0a1,1,0,0,1,1.39.3h0a1,1,0,0,1-.3,1.38h0a1,1,0,0,1-.54.16h0A1,1,0,0,1,30.71,203Zm4.21-2.7a1,1,0,0,1,.3-1.39h0a1,1,0,0,1,1.38.3h0a1,1,0,0,1-.3,1.38h0a1,1,0,0,1-.54.16h0A1,1,0,0,1,34.92,200.26Zm4.2-2.71a1,1,0,0,1,.3-1.39h0a1,1,0,0,1,1.38.3h0a1,1,0,0,1-.3,1.39h0A1,1,0,0,1,40,198h0A1,1,0,0,1,39.12,197.55Zm4.2-2.71a1,1,0,0,1,.3-1.38h0a1,1,0,0,1,1.38.3h0a1,1,0,0,1-.29,1.38h0a1,1,0,0,1-.55.16h0A1,1,0,0,1,43.32,194.84Zm4.21-2.71a1,1,0,0,1,.3-1.38h0a1,1,0,0,1,1.38.3h0a1,1,0,0,1-.3,1.38h0a1,1,0,0,1-.54.16h0A1,1,0,0,1,47.53,192.13Zm4.2-2.71A1,1,0,0,1,52,188h0a1,1,0,0,1,1.38.3h0a1,1,0,0,1-.3,1.38h0a1,1,0,0,1-.54.16h0A1,1,0,0,1,51.73,189.42Zm4.2-2.7a1,1,0,0,1,.3-1.39h0a1,1,0,0,1,1.38.3h0a1,1,0,0,1-.29,1.39h0a1.1,1.1,0,0,1-.55.16h0A1,1,0,0,1,55.93,186.72ZM60.14,184a1,1,0,0,1,.3-1.38h0a1,1,0,0,1,1.38.3h0a1,1,0,0,1-.3,1.38h0a1.09,1.09,0,0,1-.54.16h0A1,1,0,0,1,60.14,184Zm4.2-2.71a1,1,0,0,1,.3-1.38h0a1,1,0,0,1,1.38.3h0a1,1,0,0,1-.3,1.38h0a1,1,0,0,1-.54.16h0A1,1,0,0,1,64.34,181.3Zm4.2-2.71a1,1,0,0,1,.3-1.38h0a1,1,0,0,1,1.38.3h0a1,1,0,0,1-.3,1.38h0a1,1,0,0,1-.54.16h0A1,1,0,0,1,68.54,178.59Zm4.2-2.71a1,1,0,0,1,.3-1.38h0a1,1,0,0,1,1.39.3h0a1,1,0,0,1-.3,1.38h0a1,1,0,0,1-.54.16h0A1,1,0,0,1,72.74,175.88Zm4.21-2.7a1,1,0,0,1,.3-1.38h0a1,1,0,0,1,1.38.29h0a1,1,0,0,1-.3,1.39h0a1,1,0,0,1-.54.15h0A1,1,0,0,1,77,173.18Zm4.2-2.71a1,1,0,0,1,.3-1.38h0a1,1,0,0,1,1.38.29h0a1,1,0,0,1-.3,1.39h0a1,1,0,0,1-.54.16h0A1,1,0,0,1,81.15,170.47Zm4.2-2.71a1,1,0,0,1,.3-1.38h0a1,1,0,0,1,1.38.3h0a1,1,0,0,1-.29,1.38h0a1,1,0,0,1-.54.16h0A1,1,0,0,1,85.35,167.76Zm4.21-2.71a1,1,0,0,1,.3-1.38h0a1,1,0,0,1,1.38.3h0a1,1,0,0,1-.3,1.38h0a1,1,0,0,1-.54.16h0A1,1,0,0,1,89.56,165.05Zm4.2-2.71a1,1,0,0,1,.3-1.38h0a1,1,0,0,1,1.38.3h0a1,1,0,0,1-.3,1.38h0a1,1,0,0,1-.54.16h0A1,1,0,0,1,93.76,162.34Zm4.2-2.71a1,1,0,0,1,.3-1.38h0a1,1,0,0,1,1.39.3h0a1,1,0,0,1-.3,1.38h0a1,1,0,0,1-.55.17h0A1,1,0,0,1,98,159.63Zm4.21-2.7a1,1,0,0,1,.3-1.39h0a1,1,0,0,1,1.38.3h0a1,1,0,0,1-.3,1.39h0a1.09,1.09,0,0,1-.54.16h0A1,1,0,0,1,102.17,156.93Zm4.2-2.71a1,1,0,0,1,.3-1.38h0a1,1,0,0,1,1.38.3h0a1,1,0,0,1-.3,1.38h0a1,1,0,0,1-.54.16h0A1,1,0,0,1,106.37,154.22Zm4.2-2.71a1,1,0,0,1,.3-1.38h0a1,1,0,0,1,1.38.3h0a1,1,0,0,1-.29,1.38h0a1,1,0,0,1-.55.16h0A1,1,0,0,1,110.57,151.51Zm4.21-2.71a1,1,0,0,1,.3-1.38h0a1,1,0,0,1,1.38.3h0a1,1,0,0,1-.3,1.38h0a1,1,0,0,1-.54.16h0A1,1,0,0,1,114.78,148.8Zm4.2-2.7a1,1,0,0,1,.3-1.39h0a1,1,0,0,1,1.38.3h0a1,1,0,0,1-.3,1.39h0a1,1,0,0,1-.54.15h0A1,1,0,0,1,119,146.1Zm4.2-2.71a1,1,0,0,1,.3-1.38h0a1,1,0,0,1,1.38.29h0a1,1,0,0,1-.29,1.39h0a1.1,1.1,0,0,1-.55.16h0A1,1,0,0,1,123.18,143.39Zm4.21-2.71a1,1,0,0,1,.3-1.38h0a1,1,0,0,1,1.38.3h0a1,1,0,0,1-.3,1.38h0a1,1,0,0,1-.54.16h0A1,1,0,0,1,127.39,140.68Zm4.2-2.71a1,1,0,0,1,.3-1.38h0a1,1,0,0,1,1.38.3h0a1,1,0,0,1-.3,1.38h0a1,1,0,0,1-.54.16h0A1,1,0,0,1,131.59,138Zm4.2-2.71a1,1,0,0,1,.3-1.38h0a1,1,0,0,1,1.38.3h0a1,1,0,0,1-.3,1.38h0a1,1,0,0,1-.54.16h0A1,1,0,0,1,135.79,135.26Zm4.2-2.71a1,1,0,0,1,.3-1.38h0a1,1,0,0,1,1.38.3h0a1,1,0,0,1-.29,1.38h0a1,1,0,0,1-.54.16h0A1,1,0,0,1,140,132.55Zm4.21-2.7a1,1,0,0,1,.3-1.39h0a1,1,0,0,1,1.38.3h0a1,1,0,0,1-.3,1.39h0a1.06,1.06,0,0,1-.54.16h0A1,1,0,0,1,144.2,129.85Zm4.2-2.71a1,1,0,0,1,.3-1.38h0a1,1,0,0,1,1.38.3h0a1,1,0,0,1-.3,1.38h0a1,1,0,0,1-.54.16h0A1,1,0,0,1,148.4,127.14Zm4.2-2.71a1,1,0,0,1,.3-1.38h0a1,1,0,0,1,1.39.3h0a1,1,0,0,1-.3,1.38h0a1,1,0,0,1-.54.16h0A1,1,0,0,1,152.6,124.43Zm4.21-2.71a1,1,0,0,1,.3-1.38h0a1,1,0,0,1,1.38.3h0a1,1,0,0,1-.3,1.38h0a1,1,0,0,1-.54.16h0A1,1,0,0,1,156.81,121.72ZM161,119a1,1,0,0,1,.3-1.39h0a1,1,0,0,1,1.38.3h0a1,1,0,0,1-.3,1.38h0a1,1,0,0,1-.54.16h0A1,1,0,0,1,161,119Zm4.2-2.71a1,1,0,0,1,.3-1.38h0a1,1,0,0,1,1.39.29h0a1,1,0,0,1-.3,1.39h0a1.08,1.08,0,0,1-.54.15h0A1,1,0,0,1,165.21,116.31Zm4.21-2.71a1,1,0,0,1,.3-1.38h0a1,1,0,0,1,1.38.29h0a1,1,0,0,1-.3,1.39h0a1,1,0,0,1-.54.16h0A1,1,0,0,1,169.42,113.6Zm4.2-2.71a1,1,0,0,1,.3-1.38h0a1,1,0,0,1,1.38.3h0a1,1,0,0,1-.3,1.38h0a1,1,0,0,1-.54.16h0A1,1,0,0,1,173.62,110.89Zm4.2-2.71a1,1,0,0,1,.3-1.38h0a1,1,0,0,1,1.38.3h0a1,1,0,0,1-.29,1.38h0a1,1,0,0,1-.55.16h0A1,1,0,0,1,177.82,108.18Zm4.21-2.7a1,1,0,0,1,.3-1.39h0a1,1,0,0,1,1.38.3h0a1,1,0,0,1-.3,1.38h0a1,1,0,0,1-.54.16h0A1,1,0,0,1,182,105.48Zm4.2-2.71a1,1,0,0,1,.3-1.39h0a1,1,0,0,1,1.38.3h0a1,1,0,0,1-.3,1.38h0a1,1,0,0,1-.54.16h0A1,1,0,0,1,186.23,102.77Zm4.2-2.71a1,1,0,0,1,.3-1.38h0a1,1,0,0,1,1.38.3h0a1,1,0,0,1-.3,1.38h0a1,1,0,0,1-.54.16h0A1,1,0,0,1,190.43,100.06Zm4.21-2.71a1,1,0,0,1,.3-1.38h0a1,1,0,0,1,1.38.3h0a1,1,0,0,1-.3,1.38h0a1,1,0,0,1-.54.16h0A1,1,0,0,1,194.64,97.35Zm4.2-2.71a1,1,0,0,1,.3-1.38h0a1,1,0,0,1,1.38.3h0a1,1,0,0,1-.3,1.38h0a1,1,0,0,1-.54.16h0A1,1,0,0,1,198.84,94.64Zm4.2-2.71a1,1,0,0,1,.3-1.38h0a1,1,0,0,1,1.38.3h0a1,1,0,0,1-.3,1.38h0a1,1,0,0,1-.54.16h0A1,1,0,0,1,203,91.93Zm4.2-2.7a1,1,0,0,1,.3-1.39h0a1,1,0,0,1,1.38.3h0a1,1,0,0,1-.29,1.39h0a1.09,1.09,0,0,1-.54.16h0A1,1,0,0,1,207.24,89.23Zm4.21-2.71a1,1,0,0,1,.3-1.38h0a1,1,0,0,1,1.38.29h0a1,1,0,0,1-.3,1.39h0a1.06,1.06,0,0,1-.54.16h0A1,1,0,0,1,211.45,86.52Zm4.2-2.71a1,1,0,0,1,.3-1.38h0a1,1,0,0,1,1.38.3h0a1,1,0,0,1-.3,1.38h0a1,1,0,0,1-.54.16h0A1,1,0,0,1,215.65,83.81Zm4.2-2.71a1,1,0,0,1,.3-1.38h0a1,1,0,0,1,1.39.3h0a1,1,0,0,1-.3,1.38h0a1,1,0,0,1-.54.16h0A1,1,0,0,1,219.85,81.1Zm4.21-2.7a1,1,0,0,1,.3-1.39h0a1,1,0,0,1,1.38.3h0a1,1,0,0,1-.3,1.38h0a1,1,0,0,1-.54.16h0A1,1,0,0,1,224.06,78.4Zm4.2-2.71a1,1,0,0,1,.3-1.39h0a1,1,0,0,1,1.38.3h0a1,1,0,0,1-.3,1.38h0a1,1,0,0,1-.54.16h0A1,1,0,0,1,228.26,75.69Zm4.2-2.71a1,1,0,0,1,.3-1.38h0a1,1,0,0,1,1.39.29h0a1,1,0,0,1-.3,1.39h0a1.1,1.1,0,0,1-.55.16h0A1,1,0,0,1,232.46,73Zm4.21-2.71a1,1,0,0,1,.3-1.38h0a1,1,0,0,1,1.38.3h0a1,1,0,0,1-.3,1.38h0a1,1,0,0,1-.54.16h0A1,1,0,0,1,236.67,70.27Zm4.2-2.71a1,1,0,0,1,.3-1.38h0a1,1,0,0,1,1.38.3h0a1,1,0,0,1-.3,1.38h0a1,1,0,0,1-.54.16h0A1,1,0,0,1,240.87,67.56Zm4.2-2.71a1,1,0,0,1,.3-1.38h0a1,1,0,0,1,1.38.3h0a1,1,0,0,1-.29,1.38h0a1,1,0,0,1-.55.16h0A1,1,0,0,1,245.07,64.85Zm4.21-2.7a1,1,0,0,1,.3-1.39h0a1,1,0,0,1,1.38.3h0a1,1,0,0,1-.3,1.39h0a1.09,1.09,0,0,1-.54.16h0A1,1,0,0,1,249.28,62.15Zm4.2-2.71a1,1,0,0,1,.3-1.38h0a1,1,0,0,1,1.38.3h0a1,1,0,0,1-.3,1.38h0a1,1,0,0,1-.54.16h0A1,1,0,0,1,253.48,59.44Zm4.2-2.71a1,1,0,0,1,.3-1.38h0a1,1,0,0,1,1.38.3h0a1,1,0,0,1-.3,1.38h0a1,1,0,0,1-.54.16h0A1,1,0,0,1,257.68,56.73ZM261.89,54a1,1,0,0,1,.29-1.38h0a1,1,0,0,1,1.39.3h0a1,1,0,0,1-.3,1.38h0a1,1,0,0,1-.54.16h0A1,1,0,0,1,261.89,54Zm4.2-2.71a1,1,0,0,1,.3-1.38h0a1,1,0,0,1,1.38.3h0a1,1,0,0,1-.3,1.38h0a1,1,0,0,1-.54.16h0A1,1,0,0,1,266.09,51.31Zm4.2-2.7a1,1,0,0,1,.3-1.39h0a1,1,0,0,1,1.38.3h0a1,1,0,0,1-.3,1.38h0a1,1,0,0,1-.54.16h0A1,1,0,0,1,270.29,48.61Zm4.2-2.71a1,1,0,0,1,.3-1.39h0a1,1,0,0,1,1.39.3h0a1,1,0,0,1-.3,1.38h0a1,1,0,0,1-.55.17h0A1,1,0,0,1,274.49,45.9Zm4.21-2.71a1,1,0,0,1,.3-1.38h0a1,1,0,0,1,1.38.3h0a1,1,0,0,1-.3,1.38h0a1,1,0,0,1-.54.16h0A1,1,0,0,1,278.7,43.19Z" class="cls-1"/>
    <path d="M224.12,204.32l-4.57-6.56,1.23-.86,4.57,6.56ZM215,191.19l-4.57-6.56,1.23-.86,4.57,6.57Zm-9.15-13.12-4.57-6.57,1.23-.85,4.57,6.56Zm-9.14-13.13-4.58-6.56,1.23-.86,4.58,6.56Zm-9.15-13.13L183,145.25l1.23-.86,4.58,6.57Zm-9.15-13.12-4.58-6.57,1.24-.85,4.57,6.56Zm-9.15-13.13L164.66,119l1.23-.86,4.57,6.56Zm-9.15-13.13-4.57-6.56,1.23-.86,4.57,6.57Zm-9.15-13.12-4.57-6.57,1.23-.85,4.58,6.56Zm-9.14-13.13-4.58-6.56,1.23-.86L143,85.32Zm-9.15-13.13-4.58-6.56,1.24-.86,4.57,6.57Zm-9.15-13.12-4.57-6.57,1.23-.85,4.57,6.56ZM114.34,46.8l-4.57-6.56,1.23-.86,4.57,6.56Zm-9.15-13.13-4.57-6.56,1.23-.86,4.57,6.57ZM96.05,20.55,91.47,14l1.23-.85,4.58,6.56ZM86.9,7.42,82.32.86,83.55,0l4.58,6.56Z" class="cls-1"/>
    <path d="M281.23,61.22c-.58,0-1.16,0-1.75-.07a20.25,20.25,0,1,1,21.89-18.47l-.74-.06.74.06a20.25,20.25,0,0,1-20.14,18.54Zm-.05-39a18.75,18.75,0,1,0,18.7,20.33h0a18.74,18.74,0,0,0-17.1-20.26C282.24,22.24,281.71,22.22,281.18,22.22Z" class="cls-1"/>
    <path d="M279.56,54.14a1,1,0,0,1-.87-1.11h0a1,1,0,0,1,1.11-.87h0a1,1,0,0,1,.87,1.11h0a1,1,0,0,1-1,.88h-.12ZM283.81,53a1,1,0,0,1,.66-1.24h0a1,1,0,0,1,1.25.66h0a1,1,0,0,1-.67,1.25h0a.92.92,0,0,1-.29,0h0A1,1,0,0,1,283.81,53Zm-9.46-.66A1,1,0,0,1,274,51h0a1,1,0,0,1,1.38-.34h0a1,1,0,0,1,.34,1.37h0a1,1,0,0,1-.86.49h0A1,1,0,0,1,274.35,52.34Zm14.12-1.44a1,1,0,0,1,.1-1.41h0a1,1,0,0,1,1.41.1h0a1,1,0,0,1-.1,1.41h0a1,1,0,0,1-.65.25h0A1,1,0,0,1,288.47,50.9Zm-18.15-2.32h0a1,1,0,0,1,.24-1.39h0a1,1,0,0,1,1.4.25h0a1,1,0,0,1-.25,1.39h0a1,1,0,0,1-.57.18h0A1,1,0,0,1,270.32,48.58Zm21.56-1.49a1,1,0,0,1-.48-1.34h0a1,1,0,0,1,1.33-.48h0a1,1,0,0,1,.48,1.33h0a1,1,0,0,1-.9.57h0A1.07,1.07,0,0,1,291.88,47.09ZM268.16,43.5h0a1,1,0,0,1,.79-1.17h0a1,1,0,0,1,1.17.79h0a1,1,0,0,1-.79,1.17h0l-.19,0h0A1,1,0,0,1,268.16,43.5Zm25.28-1.29a1,1,0,0,1-1-1h0v0h0a1,1,0,0,1,1-1h0a1,1,0,0,1,1,1h0v0h0a1,1,0,0,1-1,1h0Zm-1-1h0Zm-23.45-2a1,1,0,0,1-.75-1.2h0a1,1,0,0,1,1.2-.75h0a1,1,0,0,1,.75,1.19h0a1,1,0,0,1-1,.78h0A.91.91,0,0,1,269,39.18Zm22.55-2.63a1,1,0,0,1,.53-1.31h0a1,1,0,0,1,1.31.53h0a1,1,0,0,1-.52,1.31h0a1.09,1.09,0,0,1-.39.08h0A1,1,0,0,1,291.56,36.55Zm-20.77-2.16a1,1,0,0,1-.19-1.4h0a1,1,0,0,1,1.39-.2h0a1,1,0,0,1,.2,1.4h0a1,1,0,0,1-.8.4h0A1,1,0,0,1,270.79,34.39Zm18.08-1.67a1,1,0,0,1-.05-1.41h0a1,1,0,0,1,1.41,0h0a1,1,0,0,1,0,1.42h0a1,1,0,0,1-.73.32h0A1,1,0,0,1,288.87,32.72Zm-14.5-2a1,1,0,0,1,.39-1.37h0a1,1,0,0,1,1.35.39h0a1,1,0,0,1-.38,1.36h0a1,1,0,0,1-.49.13h0A1,1,0,0,1,274.37,30.73Zm10.49-.42a1,1,0,0,1-.63-1.27h0a1,1,0,0,1,1.27-.62h0a1,1,0,0,1,.63,1.27h0a1,1,0,0,1-.95.67h0A.86.86,0,0,1,284.86,30.31Zm-5.74-1.48a1,1,0,0,1,.91-1.08h0a1,1,0,0,1,1.08.91h0a1,1,0,0,1-.91,1.08h-.08A1,1,0,0,1,279.12,28.83Z" class="cls-1"/>
    <rect width="52.36" height="11.7" x="107.05" y="181.27" class="cls-2"/>
    <path d="M100.92,193h64.79a11.7,11.7,0,0,1,11.7,11.7v0a0,0,0,0,1,0,0H89.22a0,0,0,0,1,0,0v0A11.7,11.7,0,0,1,100.92,193Z" class="cls-3"/>
    <path d="M40.66,154.36v21.88a5,5,0,0,0,5,5H220.48a5,5,0,0,0,5-5V154.07Zm92.43,19.89a7.31,7.31,0,1,1,7.31-7.31A7.31,7.31,0,0,1,133.09,174.25Z" class="cls-3"/>
    <path d="M220.48,42.34h-44.4V52h39.2v102.1l10.23,0V47.37A5,5,0,0,0,220.48,42.34Z" class="cls-2"/>
    <polygon points="50.6 80.66 40.66 80.66 40.66 154.36 50.6 154.35 50.6 80.66" class="cls-2"/>
    <path d="M171.7,18.35H4.39A4.39,4.39,0,0,0,0,22.74V76.27a4.38,4.38,0,0,0,4.39,4.38H73.71s18.16,16.09,36.72,16.09c0,0-7.47-9.94-10.1-16.09H171.7a4.38,4.38,0,0,0,4.38-4.38V22.74A4.39,4.39,0,0,0,171.7,18.35ZM68,55.21a5.71,5.71,0,1,1,5.7-5.71A5.71,5.71,0,0,1,68,55.21Zm21.21,0a5.71,5.71,0,1,1,5.7-5.71A5.71,5.71,0,0,1,89.22,55.21Zm21.21,0a5.71,5.71,0,1,1,5.7-5.71A5.71,5.71,0,0,1,110.43,55.21Z" class="cls-3"/>
</svg>
