<svg xmlns="http://www.w3.org/2000/svg" id="Layer_1" data-name="Layer 1" viewBox="0 0 301.87 206.5">
    <defs>
        <style>
            .cls-1,.cls-2,.cls-3,.cls-5{fill:#fff;}.cls-1{opacity:0.4;}.cls-2{opacity:0.35;}.cls-3,.cls-4{opacity:0.25;}
        </style>
    </defs>
    <title>
        website-headers-v02
    </title>
    <path d="M101.72,194.36H167a11.79,11.79,0,0,1,11.79,11.79v0a0,0,0,0,1,0,0H89.93a0,0,0,0,1,0,0v0a11.79,11.79,0,0,1,11.79-11.79Z" class="cls-1"/>
    <path d="M26.93,205.67a1,1,0,0,1,.3-1.38h0a1,1,0,0,1,1.38.3h0a1,1,0,0,1-.3,1.38h0a1,1,0,0,1-.54.16h0A1,1,0,0,1,26.93,205.67Zm4.2-2.71a1,1,0,0,1,.3-1.38h0a1,1,0,0,1,1.39.3h0a1,1,0,0,1-.3,1.38h0a1,1,0,0,1-.55.16h0A1,1,0,0,1,31.13,203Zm4.21-2.7a1,1,0,0,1,.3-1.39h0a1,1,0,0,1,1.38.3h0a1,1,0,0,1-.3,1.39h0a1.09,1.09,0,0,1-.54.16h0A1,1,0,0,1,35.34,200.26Zm4.2-2.71a1,1,0,0,1,.3-1.39h0a1,1,0,0,1,1.38.3h0a1,1,0,0,1-.3,1.39h0a1.06,1.06,0,0,1-.54.16h0A1,1,0,0,1,39.54,197.55Zm4.2-2.71a1,1,0,0,1,.3-1.38h0a1,1,0,0,1,1.38.3h0a1,1,0,0,1-.29,1.38h0a1,1,0,0,1-.54.16h0A1,1,0,0,1,43.74,194.84ZM48,192.13a1,1,0,0,1,.3-1.38h0a1,1,0,0,1,1.38.3h0a1,1,0,0,1-.3,1.38h0a1,1,0,0,1-.54.16h0A1,1,0,0,1,48,192.13Zm4.2-2.71a1,1,0,0,1,.3-1.38h0a1,1,0,0,1,1.38.3h0a1,1,0,0,1-.3,1.38h0a1,1,0,0,1-.54.16h0A1,1,0,0,1,52.15,189.42Zm4.2-2.71a1,1,0,0,1,.3-1.38h0a1,1,0,0,1,1.38.3h0a1,1,0,0,1-.3,1.38h0a1,1,0,0,1-.54.16h0A1,1,0,0,1,56.35,186.71Zm4.21-2.7a1,1,0,0,1,.29-1.38h0a1,1,0,0,1,1.39.29h0a1,1,0,0,1-.3,1.39h0a1,1,0,0,1-.54.16h0A1,1,0,0,1,60.56,184Zm4.2-2.71a1,1,0,0,1,.3-1.38h0a1,1,0,0,1,1.38.3h0a1,1,0,0,1-.3,1.38h0a1,1,0,0,1-.54.16h0A1,1,0,0,1,64.76,181.3Zm4.2-2.71a1,1,0,0,1,.3-1.38h0a1,1,0,0,1,1.38.3h0a1,1,0,0,1-.3,1.38h0a1,1,0,0,1-.54.16h0A1,1,0,0,1,69,178.59Zm4.2-2.71a1,1,0,0,1,.3-1.38h0a1,1,0,0,1,1.39.3h0a1,1,0,0,1-.3,1.38h0a1,1,0,0,1-.55.16h0A1,1,0,0,1,73.16,175.88Zm4.21-2.7a1,1,0,0,1,.3-1.38h0a1,1,0,0,1,1.38.29h0a1,1,0,0,1-.3,1.39h0a1.06,1.06,0,0,1-.54.16h0A1,1,0,0,1,77.37,173.18Zm4.2-2.71a1,1,0,0,1,.3-1.38h0a1,1,0,0,1,1.38.3h0a1,1,0,0,1-.3,1.38h0a1,1,0,0,1-.54.16h0A1,1,0,0,1,81.57,170.47Zm4.21-2.71a1,1,0,0,1,.3-1.38h0a1,1,0,0,1,1.38.3h0a1,1,0,0,1-.3,1.38h0a1,1,0,0,1-.54.16h0A1,1,0,0,1,85.78,167.76Zm4.2-2.71a1,1,0,0,1,.3-1.38h0a1,1,0,0,1,1.38.3h0a1,1,0,0,1-.3,1.38h0a1,1,0,0,1-.54.16h0A1,1,0,0,1,90,165.05Zm4.2-2.71a1,1,0,0,1,.3-1.38h0a1,1,0,0,1,1.38.3h0a1,1,0,0,1-.3,1.38h0a1,1,0,0,1-.54.16h0A1,1,0,0,1,94.18,162.34Zm4.2-2.7a1,1,0,0,1,.3-1.39h0a1,1,0,0,1,1.38.3h0a1,1,0,0,1-.29,1.39h0a1.08,1.08,0,0,1-.54.15h0A1,1,0,0,1,98.38,159.64Zm4.21-2.71a1,1,0,0,1,.3-1.38h0a1,1,0,0,1,1.38.29h0a1,1,0,0,1-.3,1.39h0a1.09,1.09,0,0,1-.54.16h0A1,1,0,0,1,102.59,156.93Zm4.2-2.71a1,1,0,0,1,.3-1.38h0a1,1,0,0,1,1.38.3h0a1,1,0,0,1-.3,1.38h0a1,1,0,0,1-.54.16h0A1,1,0,0,1,106.79,154.22Zm4.2-2.71a1,1,0,0,1,.3-1.38h0a1,1,0,0,1,1.38.3h0a1,1,0,0,1-.3,1.38h0a1,1,0,0,1-.54.16h0A1,1,0,0,1,111,151.51Zm4.21-2.71a1,1,0,0,1,.29-1.38h0a1,1,0,0,1,1.39.3h0a1,1,0,0,1-.3,1.38h0a1,1,0,0,1-.54.16h0A1,1,0,0,1,115.2,148.8Zm4.2-2.71a1,1,0,0,1,.3-1.38h0a1,1,0,0,1,1.38.3h0a1,1,0,0,1-.3,1.38h0a1,1,0,0,1-.54.16h0A1,1,0,0,1,119.4,146.09Zm4.2-2.7a1,1,0,0,1,.3-1.39h0a1,1,0,0,1,1.38.3h0a1,1,0,0,1-.29,1.39h0a1.1,1.1,0,0,1-.55.16h0A1,1,0,0,1,123.6,143.39Zm4.21-2.71a1,1,0,0,1,.3-1.38h0a1,1,0,0,1,1.38.29h0a1,1,0,0,1-.3,1.39h0a1,1,0,0,1-.54.16h0A1,1,0,0,1,127.81,140.68ZM132,138a1,1,0,0,1,.3-1.38h0a1,1,0,0,1,1.38.3h0a1,1,0,0,1-.3,1.38h0a1,1,0,0,1-.54.16h0A1,1,0,0,1,132,138Zm4.2-2.71a1,1,0,0,1,.3-1.38h0a1,1,0,0,1,1.38.3h0a1,1,0,0,1-.29,1.38h0a1,1,0,0,1-.54.16h0A1,1,0,0,1,136.21,135.26Zm4.21-2.71a1,1,0,0,1,.3-1.38h0a1,1,0,0,1,1.38.3h0a1,1,0,0,1-.3,1.38h0a1,1,0,0,1-.54.16h0A1,1,0,0,1,140.42,132.55Zm4.2-2.7a1,1,0,0,1,.3-1.38h0a1,1,0,0,1,1.38.29h0a1,1,0,0,1-.3,1.39h0a1.06,1.06,0,0,1-.54.16h0A1,1,0,0,1,144.62,129.85Zm4.2-2.71a1,1,0,0,1,.3-1.38h0a1,1,0,0,1,1.38.3h0a1,1,0,0,1-.3,1.38h0a1,1,0,0,1-.54.16h0A1,1,0,0,1,148.82,127.14Zm4.2-2.71a1,1,0,0,1,.3-1.38h0a1,1,0,0,1,1.38.3h0a1,1,0,0,1-.29,1.38h0a1,1,0,0,1-.54.16h0A1,1,0,0,1,153,124.43Zm4.21-2.71a1,1,0,0,1,.3-1.38h0a1,1,0,0,1,1.38.3h0a1,1,0,0,1-.3,1.38h0a1,1,0,0,1-.54.16h0A1,1,0,0,1,157.23,121.72Zm4.2-2.71a1,1,0,0,1,.3-1.38h0a1,1,0,0,1,1.38.3h0a1,1,0,0,1-.3,1.38h0a1,1,0,0,1-.54.16h0A1,1,0,0,1,161.43,119Zm4.2-2.7a1,1,0,0,1,.3-1.38h0a1,1,0,0,1,1.38.29h0a1,1,0,0,1-.3,1.39h0a1,1,0,0,1-.53.15h0A1,1,0,0,1,165.63,116.31Zm4.21-2.71a1,1,0,0,1,.29-1.38h0a1,1,0,0,1,1.39.29h0a1,1,0,0,1-.3,1.39h0a1,1,0,0,1-.54.16h0A1,1,0,0,1,169.84,113.6Zm4.2-2.71a1,1,0,0,1,.3-1.38h0a1,1,0,0,1,1.38.3h0a1,1,0,0,1-.3,1.38h0a1,1,0,0,1-.54.16h0A1,1,0,0,1,174,110.89Zm4.2-2.71a1,1,0,0,1,.3-1.38h0a1,1,0,0,1,1.38.3h0a1,1,0,0,1-.29,1.38h0a1,1,0,0,1-.54.16h0A1,1,0,0,1,178.24,108.18Zm4.21-2.71a1,1,0,0,1,.3-1.38h0a1,1,0,0,1,1.38.3h0a1,1,0,0,1-.3,1.38h0a1,1,0,0,1-.54.16h0A1,1,0,0,1,182.45,105.47Zm4.2-2.71a1,1,0,0,1,.3-1.38h0a1,1,0,0,1,1.38.3h0a1,1,0,0,1-.3,1.38h0a1,1,0,0,1-.54.16h0A1,1,0,0,1,186.65,102.76Zm4.2-2.7a1,1,0,0,1,.3-1.38h0a1,1,0,0,1,1.38.29h0a1,1,0,0,1-.29,1.39h0a1.1,1.1,0,0,1-.55.16h0A1,1,0,0,1,190.85,100.06Zm4.21-2.71a1,1,0,0,1,.3-1.38h0a1,1,0,0,1,1.38.29h0a1,1,0,0,1-.3,1.39h0a1,1,0,0,1-.54.16h0A1,1,0,0,1,195.06,97.35Zm4.2-2.71a1,1,0,0,1,.3-1.38h0a1,1,0,0,1,1.38.3h0a1,1,0,0,1-.3,1.38h0a1,1,0,0,1-.54.16h0A1,1,0,0,1,199.26,94.64Zm4.2-2.71a1,1,0,0,1,.3-1.38h0a1,1,0,0,1,1.38.3h0a1,1,0,0,1-.3,1.38h0a1,1,0,0,1-.54.16h0A1,1,0,0,1,203.46,91.93Zm4.21-2.71a1,1,0,0,1,.29-1.38h0a1,1,0,0,1,1.39.3h0a1,1,0,0,1-.3,1.38h0a1,1,0,0,1-.54.16h0A1,1,0,0,1,207.67,89.22Zm4.2-2.7a1,1,0,0,1,.3-1.38h0a1,1,0,0,1,1.38.29h0a1,1,0,0,1-.3,1.39h0a1,1,0,0,1-.54.16h0A1,1,0,0,1,211.87,86.52Zm4.2-2.71a1,1,0,0,1,.3-1.38h0a1,1,0,0,1,1.38.3h0a1,1,0,0,1-.3,1.38h0a1,1,0,0,1-.54.16h0A1,1,0,0,1,216.07,83.81Zm4.2-2.71a1,1,0,0,1,.3-1.38h0A1,1,0,0,1,222,80h0a1,1,0,0,1-.29,1.38h0a1,1,0,0,1-.55.16h0A1,1,0,0,1,220.27,81.1Zm4.21-2.71a1,1,0,0,1,.3-1.38h0a1,1,0,0,1,1.38.3h0a1,1,0,0,1-.3,1.38h0a1,1,0,0,1-.54.16h0A1,1,0,0,1,224.48,78.39Zm4.2-2.7a1,1,0,0,1,.3-1.39h0a1,1,0,0,1,1.38.3h0a1,1,0,0,1-.3,1.38h0a1,1,0,0,1-.54.16h0A1,1,0,0,1,228.68,75.69Zm4.2-2.71a1,1,0,0,1,.3-1.38h0a1,1,0,0,1,1.39.3h0a1,1,0,0,1-.3,1.38h0a1.09,1.09,0,0,1-.54.16h0A1,1,0,0,1,232.88,73Zm4.21-2.71a1,1,0,0,1,.3-1.38h0a1,1,0,0,1,1.38.3h0a1,1,0,0,1-.3,1.38h0a1,1,0,0,1-.54.16h0A1,1,0,0,1,237.09,70.27Zm4.2-2.71a1,1,0,0,1,.3-1.38h0a1,1,0,0,1,1.38.3h0a1,1,0,0,1-.3,1.38h0a1,1,0,0,1-.54.16h0A1,1,0,0,1,241.29,67.56Zm4.2-2.71a1,1,0,0,1,.3-1.38h0a1,1,0,0,1,1.38.3h0a1,1,0,0,1-.29,1.38h0a1,1,0,0,1-.55.16h0A1,1,0,0,1,245.49,64.85Zm4.21-2.7a1,1,0,0,1,.3-1.39h0a1,1,0,0,1,1.38.3h0a1,1,0,0,1-.3,1.38h0a1,1,0,0,1-.54.16h0A1,1,0,0,1,249.7,62.15Zm4.2-2.71a1,1,0,0,1,.3-1.39h0a1,1,0,0,1,1.38.3h0a1,1,0,0,1-.3,1.39h0a1,1,0,0,1-.54.16h0A1,1,0,0,1,253.9,59.44Zm4.2-2.71a1,1,0,0,1,.3-1.38h0a1,1,0,0,1,1.38.3h0a1,1,0,0,1-.3,1.38h0a1,1,0,0,1-.54.16h0A1,1,0,0,1,258.1,56.73ZM262.31,54a1,1,0,0,1,.29-1.38h0a1,1,0,0,1,1.39.3h0a1,1,0,0,1-.3,1.38h0a1,1,0,0,1-.54.16h0A1,1,0,0,1,262.31,54Zm4.2-2.71a1,1,0,0,1,.3-1.38h0a1,1,0,0,1,1.38.3h0a1,1,0,0,1-.3,1.38h0a1,1,0,0,1-.54.16h0A1,1,0,0,1,266.51,51.31Zm4.2-2.71a1,1,0,0,1,.3-1.38h0a1,1,0,0,1,1.38.3h0a1,1,0,0,1-.3,1.38h0a1,1,0,0,1-.54.16h0A1,1,0,0,1,270.71,48.6Zm4.2-2.7a1,1,0,0,1,.3-1.39h0a1,1,0,0,1,1.39.3h0a1,1,0,0,1-.3,1.38h0a1,1,0,0,1-.55.16h0A1,1,0,0,1,274.91,45.9Zm4.21-2.71a1,1,0,0,1,.3-1.38h0a1,1,0,0,1,1.38.29h0a1,1,0,0,1-.3,1.39h0a1,1,0,0,1-.54.16h0A1,1,0,0,1,279.12,43.19Z" class="cls-2"/>
    <path d="M224.54,204.32,220,197.76l1.23-.86,4.57,6.56Zm-9.15-13.13-4.57-6.56,1.23-.86,4.57,6.57Zm-9.15-13.12-4.57-6.57,1.23-.85,4.57,6.56Zm-9.14-13.13-4.58-6.56,1.23-.86,4.58,6.56ZM188,151.81l-4.58-6.56,1.23-.86,4.58,6.57Zm-9.15-13.12-4.58-6.57,1.23-.85,4.58,6.56Zm-9.15-13.13L165.08,119l1.23-.86,4.57,6.56Zm-9.15-13.13-4.57-6.56,1.23-.86,4.57,6.57Zm-9.15-13.12-4.57-6.57,1.23-.85,4.57,6.56Zm-9.14-13.13-4.58-6.56,1.23-.86,4.58,6.56Zm-9.15-13.13-4.58-6.56,1.23-.86,4.58,6.57Zm-9.15-13.12-4.57-6.57,1.23-.85,4.57,6.56ZM114.76,46.8l-4.57-6.56,1.23-.86L116,45.94Zm-9.15-13.13L101,27.11l1.23-.86,4.57,6.57ZM96.46,20.55,91.89,14l1.23-.85,4.58,6.56ZM87.32,7.42,82.74.86,84,0l4.58,6.56Z" class="cls-2"/>
    <path d="M281.65,61.22c-.58,0-1.16,0-1.75-.07a20.25,20.25,0,1,1,21.89-18.47l-.75-.06.75.06a20.25,20.25,0,0,1-20.14,18.54Zm0-39A18.75,18.75,0,0,0,280,59.65a18.76,18.76,0,0,0,20.27-17.1h0a18.74,18.74,0,0,0-17.1-20.26C282.66,22.24,282.13,22.22,281.6,22.22Z" class="cls-2"/>
    <path d="M280,54.14a1,1,0,0,1-.87-1.11h0a1,1,0,0,1,1.12-.87h0a1,1,0,0,1,.87,1.11h0a1,1,0,0,1-1,.88H280ZM284.23,53a1,1,0,0,1,.66-1.25h0a1,1,0,0,1,1.25.66h0a1,1,0,0,1-.67,1.25h0a.92.92,0,0,1-.29,0h0A1,1,0,0,1,284.23,53Zm-9.47-.67a1,1,0,0,1-.33-1.37h0a1,1,0,0,1,1.37-.34h0a1,1,0,0,1,.34,1.37h0a1,1,0,0,1-.86.48h0A1,1,0,0,1,274.76,52.34Zm14.13-1.44a1,1,0,0,1,.1-1.41h0a1,1,0,0,1,1.41.1h0a1,1,0,0,1-.1,1.41h0a1,1,0,0,1-.65.25h0A1,1,0,0,1,288.89,50.9Zm-18.15-2.32h0a1,1,0,0,1,.24-1.39h0a1,1,0,0,1,1.4.25h0a1,1,0,0,1-.25,1.39h0a1,1,0,0,1-.57.18h0A1,1,0,0,1,270.74,48.58Zm21.56-1.49a1,1,0,0,1-.48-1.33h0a1,1,0,0,1,1.33-.48h0a1,1,0,0,1,.48,1.33h0a1,1,0,0,1-.91.57h0A1.06,1.06,0,0,1,292.3,47.09ZM268.58,43.5a1,1,0,0,1,.8-1.17h0a1,1,0,0,1,1.17.79h0a1,1,0,0,1-.79,1.17h0l-.19,0h0A1,1,0,0,1,268.58,43.5Zm25.28-1.28a1,1,0,0,1-1-1h0v0h0a1,1,0,0,1,1-1h0a1,1,0,0,1,1,1h0v0h0a1,1,0,0,1-1,1h0Zm-1-1.06Zm-23.45-2a1,1,0,0,1-.75-1.2h0a1,1,0,0,1,1.2-.75h0a1,1,0,0,1,.75,1.2h0a1,1,0,0,1-1,.78h0A.91.91,0,0,1,269.43,39.18ZM292,36.55a1,1,0,0,1,.52-1.31h0a1,1,0,0,1,1.32.53h0a1,1,0,0,1-.53,1.31h0a1.1,1.1,0,0,1-.4.08h0A1,1,0,0,1,292,36.55Zm-20.78-2.17A1,1,0,0,1,271,33h0a1,1,0,0,1,1.4-.2h0a1,1,0,0,1,.19,1.4h0a1,1,0,0,1-.8.4h0A1,1,0,0,1,271.21,34.38Zm18.08-1.66h0a1,1,0,0,1-.05-1.41h0a1,1,0,0,1,1.41,0h0a1,1,0,0,1,.05,1.42h0A1,1,0,0,1,290,33h0A1,1,0,0,1,289.29,32.72Zm-14.5-2a1,1,0,0,1,.38-1.36h0a1,1,0,0,1,1.36.38h0a1,1,0,0,1-.38,1.36h0a1,1,0,0,1-.49.13h0A1,1,0,0,1,274.79,30.73Zm10.49-.42a1,1,0,0,1-.63-1.27h0a1,1,0,0,1,1.27-.62h0a1,1,0,0,1,.63,1.27h0a1,1,0,0,1-.95.67h0A.86.86,0,0,1,285.28,30.31Zm-5.74-1.47a1,1,0,0,1,.91-1.09h0a1,1,0,0,1,1.08.91h0a1,1,0,0,1-.91,1.08h-.08A1,1,0,0,1,279.54,28.84Z" class="cls-2"/>
    <rect width="52.77" height="11.79" x="107.9" y="182.56" class="cls-3"/>
    <path d="M41,155.44v22.05a5.07,5.07,0,0,0,5.07,5.07H222.23a5.07,5.07,0,0,0,5.07-5.07V155.15Zm93.16,20.05a7.37,7.37,0,1,1,7.37-7.37A7.37,7.37,0,0,1,134.14,175.49Z" class="cls-1"/>
    <path d="M222.23,42.53H177.48v9.73H217v102.9H227.3V47.6A5.07,5.07,0,0,0,222.23,42.53Z" class="cls-3"/>
    <polygon points="51 81.15 40.98 81.15 40.98 155.44 51 155.43 51 81.15" class="cls-3"/>
    <g class="cls-4">
        <circle cx="134.37" cy="108.45" r="16.27" class="cls-5"/>
    </g>
    <path d="M162.42,145.23A28,28,0,0,0,151,122.67a21.82,21.82,0,0,1-33.22,0,28,28,0,0,0-11.44,22.56" class="cls-3"/>
    <path d="M173.06,18.35H4.42A4.42,4.42,0,0,0,0,22.78v54a4.42,4.42,0,0,0,4.42,4.42H74.29s18.31,16.21,37,16.21c0,0-7.54-10-10.19-16.21h71.94a4.42,4.42,0,0,0,4.42-4.42V22.78A4.42,4.42,0,0,0,173.06,18.35ZM45.13,63.4,37.75,56l2.42-2.43,5,5,8.15-8.16,2.42,2.43Zm0-18.87-7.38-7.38,2.42-2.42,5,5,8.15-8.15L55.7,34ZM137.43,60h-77V55h77Zm0-18.82h-77v-5h77Z" class="cls-1"/>
</svg>
