<svg xmlns="http://www.w3.org/2000/svg" id="Layer_1" data-name="Layer 1" viewBox="0 0 301.28 206.5">
    <defs>
        <style>
            .cls-1,.cls-2,.cls-3{fill:#fff;}.cls-1{opacity:0.35;}.cls-2{opacity:0.25;}.cls-3{opacity:0.4;}
        </style>
    </defs>
    <title>
        website-headers-v02
    </title>
    <path d="M26.34,205.67a1,1,0,0,1,.3-1.38h0a1,1,0,0,1,1.38.3h0a1,1,0,0,1-.3,1.38h0a1,1,0,0,1-.54.16h0A1,1,0,0,1,26.34,205.67ZM30.55,203a1,1,0,0,1,.29-1.38h0a1,1,0,0,1,1.39.3h0a1,1,0,0,1-.3,1.38h0a1,1,0,0,1-.55.16h0A1,1,0,0,1,30.55,203Zm4.2-2.7a1,1,0,0,1,.29-1.39h0a1,1,0,0,1,1.39.3h0a1,1,0,0,1-.3,1.38h0a1,1,0,0,1-.54.16h0A1,1,0,0,1,34.75,200.26Zm4.2-2.71a1,1,0,0,1,.3-1.39h0a1,1,0,0,1,1.38.31h0a1,1,0,0,1-.3,1.38h0a1.06,1.06,0,0,1-.54.16h0A1,1,0,0,1,39,197.55Zm4.2-2.71a1,1,0,0,1,.3-1.38h0a1,1,0,0,1,1.38.3h0a1,1,0,0,1-.29,1.38h0a1,1,0,0,1-.55.16h0A1,1,0,0,1,43.15,194.84Zm4.21-2.71a1,1,0,0,1,.3-1.38h0a1,1,0,0,1,1.38.3h0a1,1,0,0,1-.3,1.38h0a1,1,0,0,1-.54.16h0A1,1,0,0,1,47.36,192.13Zm4.2-2.71a1,1,0,0,1,.3-1.38h0a1,1,0,0,1,1.38.3h0a1,1,0,0,1-.3,1.38h0a1,1,0,0,1-.54.16h0A1,1,0,0,1,51.56,189.42Zm4.2-2.7a1,1,0,0,1,.3-1.39h0a1,1,0,0,1,1.38.3h0a1,1,0,0,1-.3,1.38h0a1,1,0,0,1-.54.16h0A1,1,0,0,1,55.76,186.72ZM60,184a1,1,0,0,1,.29-1.38h0a1,1,0,0,1,1.39.3h0a1,1,0,0,1-.3,1.38h0a1.09,1.09,0,0,1-.54.16h0A1,1,0,0,1,60,184Zm4.2-2.71a1,1,0,0,1,.3-1.38h0a1,1,0,0,1,1.38.3h0a1,1,0,0,1-.3,1.38h0a1,1,0,0,1-.54.16h0A1,1,0,0,1,64.17,181.3Zm4.2-2.71a1,1,0,0,1,.3-1.38h0a1,1,0,0,1,1.38.3h0a1,1,0,0,1-.3,1.38h0a1,1,0,0,1-.54.16h0A1,1,0,0,1,68.37,178.59Zm4.2-2.7a1,1,0,0,1,.3-1.39h0a1,1,0,0,1,1.39.3h0a1,1,0,0,1-.3,1.38h0a1,1,0,0,1-.54.16h0A1,1,0,0,1,72.57,175.89Zm4.21-2.71a1,1,0,0,1,.3-1.39h0a1,1,0,0,1,1.38.3h0a1,1,0,0,1-.3,1.38h0a1,1,0,0,1-.54.17h0A1,1,0,0,1,76.78,173.18Zm4.2-2.71a1,1,0,0,1,.3-1.38h0a1,1,0,0,1,1.38.29h0a1,1,0,0,1-.3,1.39h0a1,1,0,0,1-.54.16h0A1,1,0,0,1,81,170.47Zm4.21-2.71a1,1,0,0,1,.29-1.38h0a1,1,0,0,1,1.39.3h0a1,1,0,0,1-.3,1.38h0a1,1,0,0,1-.54.16h0A1,1,0,0,1,85.19,167.76Zm4.2-2.71a1,1,0,0,1,.3-1.38h0a1,1,0,0,1,1.38.3h0a1,1,0,0,1-.3,1.38h0a1,1,0,0,1-.54.16h0A1,1,0,0,1,89.39,165.05Zm4.2-2.71a1,1,0,0,1,.3-1.38h0a1,1,0,0,1,1.38.3h0a1,1,0,0,1-.3,1.38h0a1,1,0,0,1-.54.16h0A1,1,0,0,1,93.59,162.34Zm4.2-2.7a1,1,0,0,1,.3-1.39h0a1,1,0,0,1,1.38.3h0a1,1,0,0,1-.29,1.38h0a1,1,0,0,1-.54.17h0A1,1,0,0,1,97.79,159.64Zm4.21-2.71a1,1,0,0,1,.3-1.39h0a1,1,0,0,1,1.38.3h0a1,1,0,0,1-.3,1.38h0a1,1,0,0,1-.54.17h0A1,1,0,0,1,102,156.93Zm4.2-2.71a1,1,0,0,1,.3-1.38h0a1,1,0,0,1,1.38.3h0a1,1,0,0,1-.3,1.38h0a1,1,0,0,1-.54.16h0A1,1,0,0,1,106.2,154.22Zm4.2-2.71a1,1,0,0,1,.3-1.38h0a1,1,0,0,1,1.38.3h0a1,1,0,0,1-.3,1.38h0a1,1,0,0,1-.54.16h0A1,1,0,0,1,110.4,151.51Zm4.21-2.71a1,1,0,0,1,.3-1.38h0a1,1,0,0,1,1.38.3h0a1,1,0,0,1-.3,1.38h0a1,1,0,0,1-.54.16h0A1,1,0,0,1,114.61,148.8Zm4.2-2.7a1,1,0,0,1,.3-1.39h0a1,1,0,0,1,1.38.3h0a1,1,0,0,1-.3,1.38h0a1,1,0,0,1-.54.16h0A1,1,0,0,1,118.81,146.1Zm4.2-2.71a1,1,0,0,1,.3-1.39h0a1,1,0,0,1,1.38.3h0a1,1,0,0,1-.29,1.38h0a1,1,0,0,1-.55.17h0A1,1,0,0,1,123,143.39Zm4.21-2.71a1,1,0,0,1,.29-1.38h0a1,1,0,0,1,1.39.29h0a1,1,0,0,1-.3,1.39h0a1,1,0,0,1-.54.16h0A1,1,0,0,1,127.22,140.68Zm4.2-2.71a1,1,0,0,1,.3-1.38h0a1,1,0,0,1,1.38.3h0a1,1,0,0,1-.3,1.38h0a1,1,0,0,1-.54.16h0A1,1,0,0,1,131.42,138Zm4.2-2.71a1,1,0,0,1,.3-1.38h0a1,1,0,0,1,1.38.3h0a1,1,0,0,1-.3,1.38h0a1,1,0,0,1-.54.16h0A1,1,0,0,1,135.62,135.26Zm4.2-2.7a1,1,0,0,1,.31-1.39h0a1,1,0,0,1,1.38.3h0a1,1,0,0,1-.3,1.38h0a1,1,0,0,1-.54.16h0A1,1,0,0,1,139.82,132.56Zm4.21-2.71a1,1,0,0,1,.3-1.38h0a1,1,0,0,1,1.38.29h0a1,1,0,0,1-.3,1.39h0a1.09,1.09,0,0,1-.54.16h0A1,1,0,0,1,144,129.85Zm4.2-2.71a1,1,0,0,1,.3-1.38h0a1,1,0,0,1,1.38.29h0a1,1,0,0,1-.3,1.39h0a1,1,0,0,1-.54.16h0A1,1,0,0,1,148.23,127.14Zm4.21-2.71a1,1,0,0,1,.29-1.38h0a1,1,0,0,1,1.38.3h0a1,1,0,0,1-.29,1.38h0a1,1,0,0,1-.54.16h0A1,1,0,0,1,152.44,124.43Zm4.2-2.71a1,1,0,0,1,.3-1.38h0a1,1,0,0,1,1.38.3h0A1,1,0,0,1,158,122h0a1,1,0,0,1-.54.16h0A1,1,0,0,1,156.64,121.72Zm4.2-2.71a1,1,0,0,1,.3-1.38h0a1,1,0,0,1,1.38.3h0a1,1,0,0,1-.3,1.38h0a1,1,0,0,1-.54.16h0A1,1,0,0,1,160.84,119Zm4.2-2.7a1,1,0,0,1,.3-1.38h0a1,1,0,0,1,1.39.29h0a1,1,0,0,1-.3,1.39h0a1.08,1.08,0,0,1-.54.15h0A1,1,0,0,1,165,116.31Zm4.21-2.71a1,1,0,0,1,.3-1.38h0a1,1,0,0,1,1.38.29h0a1,1,0,0,1-.3,1.39h0a1,1,0,0,1-.54.16h0A1,1,0,0,1,169.25,113.6Zm4.2-2.71a1,1,0,0,1,.3-1.38h0a1,1,0,0,1,1.38.3h0a1,1,0,0,1-.3,1.38h0a1,1,0,0,1-.54.16h0A1,1,0,0,1,173.45,110.89Zm4.2-2.71a1,1,0,0,1,.3-1.38h0a1,1,0,0,1,1.38.3h0a1,1,0,0,1-.29,1.38h0a1,1,0,0,1-.55.16h0A1,1,0,0,1,177.65,108.18Zm4.21-2.71a1,1,0,0,1,.29-1.38h0a1,1,0,0,1,1.39.3h0a1,1,0,0,1-.3,1.38h0a1,1,0,0,1-.54.16h0A1,1,0,0,1,181.86,105.47Zm4.2-2.7a1,1,0,0,1,.3-1.39h0a1,1,0,0,1,1.38.3h0a1,1,0,0,1-.3,1.38h0a1,1,0,0,1-.54.16h0A1,1,0,0,1,186.06,102.77Zm4.2-2.71a1,1,0,0,1,.3-1.38h0a1,1,0,0,1,1.38.29h0a1,1,0,0,1-.3,1.39h0a1,1,0,0,1-.54.16h0A1,1,0,0,1,190.26,100.06Zm4.21-2.71a1,1,0,0,1,.3-1.38h0a1,1,0,0,1,1.38.29h0a1,1,0,0,1-.3,1.39h0a1,1,0,0,1-.54.16h0A1,1,0,0,1,194.47,97.35Zm4.2-2.71a1,1,0,0,1,.3-1.38h0a1,1,0,0,1,1.38.3h0a1,1,0,0,1-.3,1.38h0a1,1,0,0,1-.54.16h0A1,1,0,0,1,198.67,94.64Zm4.2-2.71a1,1,0,0,1,.3-1.38h0a1,1,0,0,1,1.38.3h0a1,1,0,0,1-.3,1.38h0a1,1,0,0,1-.54.16h0A1,1,0,0,1,202.87,91.93Zm4.21-2.71a1,1,0,0,1,.29-1.38h0a1,1,0,0,1,1.39.3h0a1,1,0,0,1-.3,1.38h0a1,1,0,0,1-.54.16h0A1,1,0,0,1,207.08,89.22Zm4.2-2.7a1,1,0,0,1,.3-1.38h0a1,1,0,0,1,1.38.29h0a1,1,0,0,1-.3,1.39h0a1,1,0,0,1-.54.16h0A1,1,0,0,1,211.28,86.52Zm4.2-2.71a1,1,0,0,1,.3-1.38h0a1,1,0,0,1,1.38.3h0a1,1,0,0,1-.3,1.38h0a1,1,0,0,1-.54.16h0A1,1,0,0,1,215.48,83.81Zm4.2-2.71a1,1,0,0,1,.3-1.38h0a1,1,0,0,1,1.38.3h0a1,1,0,0,1-.29,1.38h0a1,1,0,0,1-.54.16h0A1,1,0,0,1,219.68,81.1Zm4.21-2.71a1,1,0,0,1,.3-1.38h0a1,1,0,0,1,1.38.3h0a1,1,0,0,1-.3,1.38h0a1,1,0,0,1-.54.16h0A1,1,0,0,1,223.89,78.39Zm4.2-2.71a1,1,0,0,1,.3-1.38h0a1,1,0,0,1,1.38.3h0a1,1,0,0,1-.3,1.39h0a1,1,0,0,1-.54.15h0A1,1,0,0,1,228.09,75.68Zm4.2-2.7a1,1,0,0,1,.3-1.38h0a1,1,0,0,1,1.39.29h0a1,1,0,0,1-.3,1.39h0a1.09,1.09,0,0,1-.54.16h0A1,1,0,0,1,232.29,73Zm4.21-2.71a1,1,0,0,1,.3-1.38h0a1,1,0,0,1,1.38.3h0a1,1,0,0,1-.3,1.38h0a1,1,0,0,1-.54.16h0A1,1,0,0,1,236.5,70.27Zm4.2-2.71a1,1,0,0,1,.3-1.38h0a1,1,0,0,1,1.38.3h0a1,1,0,0,1-.3,1.38h0a1,1,0,0,1-.54.16h0A1,1,0,0,1,240.7,67.56Zm4.2-2.71a1,1,0,0,1,.3-1.38h0a1,1,0,0,1,1.38.3h0a1,1,0,0,1-.29,1.38h0a1,1,0,0,1-.55.16h0A1,1,0,0,1,244.9,64.85Zm4.21-2.7a1,1,0,0,1,.29-1.39h0a1,1,0,0,1,1.39.3h0a1,1,0,0,1-.3,1.38h0a1,1,0,0,1-.54.16h0A1,1,0,0,1,249.11,62.15Zm4.2-2.71a1,1,0,0,1,.3-1.39h0a1,1,0,0,1,1.38.3h0a1,1,0,0,1-.3,1.39h0a1,1,0,0,1-.54.16h0A1,1,0,0,1,253.31,59.44Zm4.2-2.71a1,1,0,0,1,.3-1.38h0a1,1,0,0,1,1.39.29h0a1,1,0,0,1-.31,1.39h0a1,1,0,0,1-.54.16h0A1,1,0,0,1,257.51,56.73ZM261.72,54a1,1,0,0,1,.29-1.38h0a1,1,0,0,1,1.39.3h0a1,1,0,0,1-.3,1.38h0a1,1,0,0,1-.54.16h0A1,1,0,0,1,261.72,54Zm4.2-2.71a1,1,0,0,1,.3-1.38h0a1,1,0,0,1,1.38.3h0a1,1,0,0,1-.3,1.38h0a1,1,0,0,1-.54.16h0A1,1,0,0,1,265.92,51.31Zm4.2-2.71a1,1,0,0,1,.3-1.38h0a1,1,0,0,1,1.38.3h0a1,1,0,0,1-.29,1.38h0a1,1,0,0,1-.55.16h0A1,1,0,0,1,270.12,48.6Zm4.21-2.7a1,1,0,0,1,.29-1.39h0a1,1,0,0,1,1.38.3h0a1,1,0,0,1-.29,1.39h0a1.09,1.09,0,0,1-.54.16h0A1,1,0,0,1,274.33,45.9Zm4.2-2.71a1,1,0,0,1,.3-1.38h0a1,1,0,0,1,1.38.29h0a1,1,0,0,1-.3,1.39h0a1,1,0,0,1-.54.16h0A1,1,0,0,1,278.53,43.19Z" class="cls-1"/>
    <path d="M224,204.32l-4.57-6.56,1.23-.86,4.57,6.56Zm-9.15-13.13-4.57-6.56,1.23-.86,4.57,6.57Zm-9.15-13.12-4.57-6.57,1.23-.85,4.57,6.56Zm-9.14-13.13-4.58-6.56,1.23-.86,4.58,6.56Zm-9.15-13.13-4.58-6.56,1.23-.86,4.58,6.57Zm-9.15-13.12-4.57-6.57,1.23-.85,4.57,6.56Zm-9.15-13.13L164.49,119l1.23-.86,4.57,6.56Zm-9.15-13.13-4.57-6.56,1.23-.86,4.57,6.57Zm-9.14-13.12-4.58-6.57,1.23-.85L152,98.45Zm-9.15-13.13L137,79.62l1.23-.86,4.58,6.56Zm-9.15-13.13-4.57-6.56,1.23-.86,4.57,6.57Zm-9.15-13.12-4.57-6.57,1.23-.85,4.57,6.56ZM114.17,46.8l-4.57-6.56,1.23-.86,4.57,6.56ZM105,33.67l-4.57-6.56,1.23-.86,4.57,6.57ZM95.88,20.55,91.3,14l1.23-.85,4.58,6.56ZM86.73,7.42,82.15.86,83.38,0,88,6.56Z" class="cls-1"/>
    <path d="M281.06,61.22c-.58,0-1.16,0-1.75-.07A20.25,20.25,0,1,1,301.2,42.68l-.74-.06.74.06a20.25,20.25,0,0,1-20.14,18.54Zm-.05-39a18.75,18.75,0,1,0,18.7,20.33h0a18.74,18.74,0,0,0-17.1-20.26C282.07,22.24,281.54,22.22,281,22.22Z" class="cls-1"/>
    <path d="M279.39,54.14a1,1,0,0,1-.87-1.11h0a1,1,0,0,1,1.12-.87h0a1,1,0,0,1,.87,1.11h0a1,1,0,0,1-1,.88h-.13ZM283.64,53a1,1,0,0,1,.66-1.24h0a1,1,0,0,1,1.25.66h0a1,1,0,0,1-.66,1.25h0a1,1,0,0,1-.3,0h0A1,1,0,0,1,283.64,53Zm-9.46-.66a1,1,0,0,1-.34-1.37h0a1,1,0,0,1,1.37-.34h0a1,1,0,0,1,.34,1.37h0a1,1,0,0,1-.86.48h0A1,1,0,0,1,274.18,52.34ZM288.3,50.9a1,1,0,0,1,.1-1.41h0a1,1,0,0,1,1.41.1h0a1,1,0,0,1-.1,1.41h0a1,1,0,0,1-.65.25h0A1,1,0,0,1,288.3,50.9Zm-18.15-2.32a1,1,0,0,1,.24-1.4h0a1,1,0,0,1,1.4.25h0a1,1,0,0,1-.25,1.39h0A1,1,0,0,1,271,49h0A1,1,0,0,1,270.15,48.58Zm21.56-1.49a1,1,0,0,1-.48-1.33h0a1,1,0,0,1,1.33-.48h0a1,1,0,0,1,.48,1.33h0a1,1,0,0,1-.91.57h0A1.06,1.06,0,0,1,291.71,47.09ZM268,43.5a1,1,0,0,1,.8-1.17h0a1,1,0,0,1,1.17.79h0a1,1,0,0,1-.8,1.17h0l-.19,0h0A1,1,0,0,1,268,43.5Zm25.28-1.28a1,1,0,0,1-1-1h0v0h0a1,1,0,0,1,1-1h0a1,1,0,0,1,1,1h0v0h0v0h0a1,1,0,0,1-1,1h0Zm-24.43-3a1,1,0,0,1-.75-1.2h0a1,1,0,0,1,1.2-.75h0a1,1,0,0,1,.75,1.2h0a1,1,0,0,1-1,.78h0A.91.91,0,0,1,268.84,39.18Zm22.55-2.63a1,1,0,0,1,.53-1.31h0a1,1,0,0,1,1.31.53h0a1,1,0,0,1-.52,1.31h0a1.09,1.09,0,0,1-.39.08h0A1,1,0,0,1,291.39,36.55Zm-20.77-2.16a1,1,0,0,1-.19-1.4h0a1,1,0,0,1,1.4-.2h0a1,1,0,0,1,.19,1.4h0a1,1,0,0,1-.8.4h0A1,1,0,0,1,270.62,34.39Zm18.08-1.67h0a1,1,0,0,1-.05-1.41h0a1,1,0,0,1,1.41,0h0a1,1,0,0,1,.05,1.42h0a1,1,0,0,1-.73.32h0A1,1,0,0,1,288.7,32.72Zm-14.5-2a1,1,0,0,1,.39-1.36h0a1,1,0,0,1,1.36.39h0a1,1,0,0,1-.39,1.36h0a1,1,0,0,1-.49.13h0A1,1,0,0,1,274.2,30.72Zm10.48-.41a1,1,0,0,1-.62-1.27h0a1,1,0,0,1,1.27-.62h0a1,1,0,0,1,.63,1.27h0a1,1,0,0,1-.95.67h0A1,1,0,0,1,284.68,30.31ZM279,28.83a1,1,0,0,1,.91-1.08h0a1,1,0,0,1,1.08.91h0a1,1,0,0,1-.91,1.08H280A1,1,0,0,1,279,28.83Z" class="cls-1"/>
    <rect width="33.7" height="5.87" x="202.86" y="200.03" class="cls-2"/>
    <path d="M247,104.79a5.22,5.22,0,0,0-5.22,5.22v6a10.71,10.71,0,0,1-10.14,10.68V106.26a11.47,11.47,0,0,0-22.94,0v38.1a7.57,7.57,0,0,1-7.34-7.55V132a5.22,5.22,0,1,0-10.43,0v4.84a18,18,0,0,0,17.77,18v10h22.94V137.18A21.18,21.18,0,0,0,252.19,116v-6A5.22,5.22,0,0,0,247,104.79Zm-33.08,54.36a1.69,1.69,0,0,1,0-3.37,1.69,1.69,0,1,1,0,3.37Zm0-7.38a1.69,1.69,0,0,1,0-3.37,1.69,1.69,0,1,1,0,3.37Zm0-7.37a1.69,1.69,0,1,1,1.69-1.69A1.69,1.69,0,0,1,213.89,144.4Zm0-7.38a1.69,1.69,0,1,1,1.69-1.69A1.68,1.68,0,0,1,213.89,137Zm0-7.38a1.69,1.69,0,0,1,0-3.37,1.69,1.69,0,1,1,0,3.37Zm0-7.38a1.69,1.69,0,0,1,0-3.37,1.69,1.69,0,1,1,0,3.37Zm0-7.37a1.69,1.69,0,1,1,1.69-1.69A1.69,1.69,0,0,1,213.89,114.89Zm0-7.38a1.69,1.69,0,1,1,1.69-1.69A1.69,1.69,0,0,1,213.89,107.51Zm6.25,51.64a1.69,1.69,0,0,1,0-3.37,1.69,1.69,0,1,1,0,3.37Zm0-7.38a1.69,1.69,0,0,1,0-3.37,1.69,1.69,0,1,1,0,3.37Zm0-7.37a1.69,1.69,0,1,1,1.69-1.69A1.69,1.69,0,0,1,220.14,144.4Zm0-7.38a1.69,1.69,0,1,1,1.69-1.69A1.68,1.68,0,0,1,220.14,137Zm0-7.38a1.69,1.69,0,0,1,0-3.37,1.69,1.69,0,1,1,0,3.37Zm0-7.38a1.69,1.69,0,0,1,0-3.37,1.69,1.69,0,1,1,0,3.37Zm0-7.37a1.69,1.69,0,1,1,1.69-1.69A1.69,1.69,0,0,1,220.14,114.89Zm0-7.38a1.69,1.69,0,1,1,1.69-1.69A1.69,1.69,0,0,1,220.14,107.51Zm6.25,51.64a1.69,1.69,0,0,1,0-3.37,1.69,1.69,0,1,1,0,3.37Zm0-7.38a1.69,1.69,0,0,1,0-3.37,1.69,1.69,0,1,1,0,3.37Zm0-7.37a1.69,1.69,0,1,1,1.69-1.69A1.69,1.69,0,0,1,226.39,144.4Zm0-7.38a1.69,1.69,0,1,1,1.69-1.69A1.68,1.68,0,0,1,226.39,137Zm0-7.38a1.69,1.69,0,0,1,0-3.37,1.69,1.69,0,1,1,0,3.37Zm0-7.38a1.69,1.69,0,0,1,0-3.37,1.69,1.69,0,1,1,0,3.37Zm0-7.37a1.69,1.69,0,1,1,1.69-1.69A1.69,1.69,0,0,1,226.39,114.89Zm0-7.38a1.69,1.69,0,1,1,1.69-1.69A1.69,1.69,0,0,1,226.39,107.51Z" class="cls-3"/>
    <path d="M219.92,164.81V200h11.46a23.8,23.8,0,0,0,12.35-20.87V164.81Z" class="cls-2"/>
    <path d="M208.47,200h11.45V164.81H196.11v14.35A23.81,23.81,0,0,0,208.47,200Z" class="cls-3"/>
    <path d="M155.67,68.25a20,20,0,0,0,37.71-13.5Z" class="cls-3"/>
    <rect width="140.93" height="12.65" y="193.85" class="cls-2"/>
    <path d="M46.39,86.16a9.23,9.23,0,0,1-6.27-2.46V193.85H62.69l-10-110.17A9.26,9.26,0,0,1,46.39,86.16Z" class="cls-3"/>
    <path d="M46.39,67.6a9.28,9.28,0,1,0,9.28,9.28A9.28,9.28,0,0,0,46.39,67.6Zm0,14.42a5.14,5.14,0,1,1,5.14-5.14A5.14,5.14,0,0,1,46.39,82Z" class="cls-2"/>
    <polygon points="90.78 193.85 90.78 186.5 115.35 190.18 115.35 193.85 90.78 193.85" class="cls-3"/>
    <path d="M133.53,11.23,150,0H129.66a11.86,11.86,0,0,0,.45,1.7Z" class="cls-2"/>
    <path d="M174,11.76,169.8,0H154.75l3.31,6.54L137,21l1.28,3.58a41.47,41.47,0,0,0-8.75,42.29L133,76.38,211,48.43l-3.42-9.55A41.44,41.44,0,0,0,174,11.76Z" class="cls-2"/>
    <path d="M150,0,49.84,68.29l.59.25a9.28,9.28,0,0,1,5.15,8.21L158.06,6.54,154.75,0Zm.56,7.86a2.51,2.51,0,1,1,3.36-1.14A2.52,2.52,0,0,1,150.55,7.86Z" class="cls-3"/>
</svg>
