<svg xmlns="http://www.w3.org/2000/svg" xmlns:xlink="http://www.w3.org/1999/xlink" id="Layer_1" data-name="Layer 1" viewBox="0 0 1500 208">
    <defs>
        <style>
            .cls-1{fill:url(#linear-gradient);}.cls-2,.cls-5,.cls-6,.cls-8,.cls-9{opacity:0.35;}.cls-10,.cls-3,.cls-4,.cls-5,.cls-6,.cls-7,.cls-8,.cls-9{fill:none;stroke:#fff;stroke-miterlimit:10;}.cls-10,.cls-3,.cls-4,.cls-7,.cls-9{stroke-linecap:round;stroke-width:2px;}.cls-4{stroke-dasharray:0 5.01;}.cls-5,.cls-6{stroke-width:1.5px;}.cls-5{stroke-dasharray:8 8;}.cls-7{stroke-dasharray:0 5.08;}.cls-9{stroke-dasharray:0 5;}.cls-10{stroke-dasharray:0 5.14;}.cls-11,.cls-12{fill:#fff;}.cls-11{opacity:0.4;}.cls-12{opacity:0.25;}
        </style>
        <linearGradient id="linear-gradient" x2="1500" y1="103.5" y2="103.5" gradientUnits="userSpaceOnUse">
            <stop offset="0" stop-color="#f68155"/>
            <stop offset="1" stop-color="#b6466e"/>
        </linearGradient>
    </defs>
    <title>
        website-headers-v02
    </title>
    <rect width="1500" height="215" y="-4" class="cls-1"/>
    <g class="cls-2">
        <line x1="1342.39" x2="1342.39" y1="208" y2="208" class="cls-3"/>
        <line x1="1342.39" x2="1342.39" y1="202.99" y2="25.17" class="cls-4"/>
        <line x1="1342.39" x2="1342.39" y1="22.66" y2="22.66" class="cls-3"/>
    </g>
    <line x1="1203.88" x2="1434.56" y1="151.01" class="cls-5"/>
    <circle cx="1203.46" cy="150.6" r="36" class="cls-6"/>
    <g class="cls-2">
        <circle cx="1203.46" cy="150.6" r="22.65" class="cls-7"/>
    </g>
    <circle cx="1342.39" cy="14.83" r="4.17" class="cls-8"/>
    <line x1="132.34" x2="385.01" y1="206.98" y2="44.19" class="cls-9"/>
    <line x1="329.73" x2="186.34" y1="205.74" class="cls-5"/>
    <circle cx="386.19" cy="42.82" r="19.5" class="cls-6"/>
    <g class="cls-2">
        <path d="M398.45,43.06a12.27,12.27,0,1,1-12-12.51A12.27,12.27,0,0,1,398.45,43.06Z" class="cls-10"/>
    </g>
    <path d="M1375.22,97.26h-9.7V69.17a23.58,23.58,0,0,0-47.16,0V97.26h-9.71V69.17a33.29,33.29,0,0,1,66.57,0Z" class="cls-11"/>
    <path d="M1313.51,97.26H1291V161.4h101.94V97.26Zm35.71,48a7.11,7.11,0,0,1-14.22,0V129.33a7.11,7.11,0,0,1,14.22,0Z" class="cls-12"/>
    <rect width="101.94" height="15.26" x="1290.97" y="161.4" class="cls-11"/>
    <rect width="33.7" height="5.87" x="308.01" y="201.88" class="cls-12"/>
    <path d="M352.13,106.64a5.22,5.22,0,0,0-5.22,5.22v6a10.71,10.71,0,0,1-10.14,10.68V108.11a11.47,11.47,0,1,0-22.94,0v38.1a7.57,7.57,0,0,1-7.34-7.55v-4.84a5.22,5.22,0,1,0-10.43,0v4.84a18,18,0,0,0,17.77,18v10h22.94V139a21.18,21.18,0,0,0,20.58-21.14v-6A5.22,5.22,0,0,0,352.13,106.64ZM319.05,161a1.69,1.69,0,1,1,1.69-1.68A1.69,1.69,0,0,1,319.05,161Zm0-7.38a1.69,1.69,0,1,1,1.69-1.68A1.69,1.69,0,0,1,319.05,153.62Zm0-7.37a1.69,1.69,0,1,1,1.69-1.69A1.69,1.69,0,0,1,319.05,146.25Zm0-7.38a1.69,1.69,0,1,1,1.69-1.69A1.69,1.69,0,0,1,319.05,138.87Zm0-7.38a1.69,1.69,0,1,1,1.69-1.68A1.69,1.69,0,0,1,319.05,131.49Zm0-7.38a1.69,1.69,0,1,1,1.69-1.68A1.69,1.69,0,0,1,319.05,124.11Zm0-7.37a1.69,1.69,0,1,1,1.69-1.69A1.69,1.69,0,0,1,319.05,116.74Zm0-7.38a1.69,1.69,0,1,1,1.69-1.69A1.69,1.69,0,0,1,319.05,109.36ZM325.3,161a1.69,1.69,0,0,1,0-3.37,1.69,1.69,0,1,1,0,3.37Zm0-7.38a1.69,1.69,0,0,1,0-3.37,1.69,1.69,0,1,1,0,3.37Zm0-7.37a1.69,1.69,0,1,1,1.69-1.69A1.69,1.69,0,0,1,325.3,146.25Zm0-7.38a1.69,1.69,0,1,1,1.69-1.69A1.68,1.68,0,0,1,325.3,138.87Zm0-7.38a1.69,1.69,0,0,1,0-3.37,1.69,1.69,0,1,1,0,3.37Zm0-7.38a1.69,1.69,0,0,1,0-3.37,1.69,1.69,0,1,1,0,3.37Zm0-7.37a1.69,1.69,0,1,1,1.69-1.69A1.69,1.69,0,0,1,325.3,116.74Zm0-7.38a1.69,1.69,0,1,1,1.69-1.69A1.69,1.69,0,0,1,325.3,109.36ZM331.55,161a1.69,1.69,0,0,1,0-3.37,1.69,1.69,0,1,1,0,3.37Zm0-7.38a1.69,1.69,0,0,1,0-3.37,1.69,1.69,0,1,1,0,3.37Zm0-7.37a1.69,1.69,0,1,1,1.69-1.69A1.69,1.69,0,0,1,331.55,146.25Zm0-7.38a1.69,1.69,0,1,1,1.69-1.69A1.68,1.68,0,0,1,331.55,138.87Zm0-7.38a1.69,1.69,0,0,1,0-3.37,1.69,1.69,0,1,1,0,3.37Zm0-7.38a1.69,1.69,0,0,1,0-3.37,1.69,1.69,0,1,1,0,3.37Zm0-7.37a1.69,1.69,0,1,1,1.69-1.69A1.69,1.69,0,0,1,331.55,116.74Zm0-7.38a1.69,1.69,0,1,1,1.69-1.69A1.69,1.69,0,0,1,331.55,109.36Z" class="cls-11"/>
    <path d="M325.08,166.66v35.22h11.46A23.8,23.8,0,0,0,348.89,181V166.66Z" class="cls-12"/>
    <path d="M313.63,201.88h11.45V166.66H301.27V181A23.79,23.79,0,0,0,313.63,201.88Z" class="cls-11"/>
    <path d="M260.83,70.1a20,20,0,0,0,37.71-13.5Z" class="cls-11"/>
    <rect width="140.93" height="13.71" x="105.16" y="195.7" class="cls-12"/>
    <path d="M151.55,88a9.23,9.23,0,0,1-6.27-2.46V195.7h22.57l-10-110.17A9.28,9.28,0,0,1,151.55,88Z" class="cls-11"/>
    <path d="M151.55,69.45a9.28,9.28,0,1,0,9.28,9.28A9.28,9.28,0,0,0,151.55,69.45Zm0,14.42a5.14,5.14,0,1,1,5.14-5.14A5.14,5.14,0,0,1,151.55,83.87Z" class="cls-12"/>
    <path d="M258.69-.57,155,70.14l.59.25a9.28,9.28,0,0,1,5.15,8.21L263.22,8.39Zm-3,10.28a2.51,2.51,0,1,1,3.36-1.14A2.52,2.52,0,0,1,255.71,9.71Z" class="cls-11"/>
    <polygon points="195.93 195.7 195.93 188.35 220.51 192.03 220.51 195.7 195.93 195.7" class="cls-11"/>
    <path d="M312.77,40.73a41.44,41.44,0,0,0-33.6-27.12L271-9.24a11.65,11.65,0,0,0-14.89-7l-13.79,4.94a11.66,11.66,0,0,0-7,14.89l3.42,9.53,20-13.65,4.53,9L242.17,22.81l1.28,3.58a41.47,41.47,0,0,0-8.75,42.29l3.42,9.55,78.07-27.95Z" class="cls-12"/>
</svg>
