<svg id="Layer_1" data-name="Layer 1" xmlns="http://www.w3.org/2000/svg" xmlns:xlink="http://www.w3.org/1999/xlink" viewBox="0 0 1500 208"><defs><style>.cls-1{fill:url(#linear-gradient);}.cls-11,.cls-2,.cls-5,.cls-6,.cls-8{opacity:0.35;}.cls-11,.cls-12,.cls-3,.cls-4,.cls-5,.cls-6,.cls-7,.cls-8{fill:none;stroke:#fff;stroke-miterlimit:10;}.cls-11,.cls-12,.cls-3,.cls-4,.cls-7{stroke-linecap:round;stroke-width:2px;}.cls-4{stroke-dasharray:0 5.01;}.cls-5,.cls-6{stroke-width:1.5px;}.cls-5{stroke-dasharray:8 8;}.cls-7{stroke-dasharray:0 5.08;}.cls-10,.cls-14,.cls-9{fill:#fff;}.cls-9{opacity:0.4;}.cls-10,.cls-13{opacity:0.25;}.cls-11{stroke-dasharray:0 5;}.cls-12{stroke-dasharray:0 5.14;}</style><linearGradient id="linear-gradient" y1="103.5" x2="1500" y2="103.5" gradientUnits="userSpaceOnUse"><stop offset="0" stop-color="#81e3ee"/><stop offset="1" stop-color="#66accb"/></linearGradient></defs><title>website-headers-v02</title><rect class="cls-1" y="-6" width="1500" height="219"/><g class="cls-2"><line class="cls-3" x1="1342.39" y1="208" x2="1342.39" y2="208"/><line class="cls-4" x1="1342.39" y1="202.99" x2="1342.39" y2="25.17"/><line class="cls-3" x1="1342.39" y1="22.66" x2="1342.39" y2="22.66"/></g><line class="cls-5" x1="1203.88" y1="151.01" x2="1434.56"/><circle class="cls-6" cx="1203.46" cy="150.6" r="36"/><g class="cls-2"><circle class="cls-7" cx="1203.46" cy="150.6" r="22.65"/></g><circle class="cls-8" cx="1342.39" cy="14.83" r="4.17"/><path class="cls-9" d="M1375.22,98h-9.7V69.9a23.58,23.58,0,1,0-47.16,0V98h-9.71V69.9a33.29,33.29,0,1,1,66.57,0Z"/><path class="cls-10" d="M1313.51,98H1291v64.14h101.94V98Zm35.71,48a7.11,7.11,0,0,1-14.22,0V130.06a7.11,7.11,0,0,1,14.22,0Z"/><rect class="cls-9" x="1290.97" y="162.13" width="101.94" height="15.26"/><line class="cls-11" x1="132.34" y1="206.98" x2="385.01" y2="44.19"/><line class="cls-5" x1="329.73" y1="205.74" x2="186.34"/><circle class="cls-6" cx="386.19" cy="42.82" r="19.5"/><g class="cls-2"><path class="cls-12" d="M398.45,43.06a12.27,12.27,0,1,1-12-12.51A12.27,12.27,0,0,1,398.45,43.06Z"/></g><path class="cls-9" d="M289.4,59.24a63.81,63.81,0,1,0,0,90.25A63.81,63.81,0,0,0,289.4,59.24Zm-81.95,81.95a52.08,52.08,0,1,1,73.66,0A52.07,52.07,0,0,1,207.45,141.19Z"/><path class="cls-10" d="M281.11,67.54a52.08,52.08,0,1,0,0,73.65A52.09,52.09,0,0,0,281.11,67.54Zm-69.35,69.34a46,46,0,1,1,65,0A46,46,0,0,1,211.76,136.88Z"/><rect class="cls-10" x="177.6" y="152.87" width="25.26" height="11.1" transform="translate(-56.3 180.91) rotate(-45)"/><path class="cls-10" d="M181.17,167.23l8,8L149.1,215.25a11.11,11.11,0,0,1-15.7,0"/><path class="cls-9" d="M133.4,215.25h0a11.11,11.11,0,0,1,0-15.71l40-40,7.73,7.73"/><g class="cls-13"><circle class="cls-14" cx="245.38" cy="91.26" r="17.31"/></g><path class="cls-10" d="M275.22,130.39a29.78,29.78,0,0,0-12.17-24,23.21,23.21,0,0,1-35.34,0,29.78,29.78,0,0,0-12.17,24"/><path class="cls-10" d="M316,77.39a2.76,2.76,0,0,1-2.54-1.69,74.64,74.64,0,0,0-37.15-39,2.75,2.75,0,1,1,2.35-5,80.15,80.15,0,0,1,39.88,41.9A2.73,2.73,0,0,1,316,77.39Z"/><path class="cls-10" d="M331.11,77.24a2.75,2.75,0,0,1-2.6-1.86,88.69,88.69,0,0,0-52-54.07,2.75,2.75,0,1,1,2-5.12A94.16,94.16,0,0,1,333.71,73.6a2.75,2.75,0,0,1-2.6,3.64Z"/></svg>