<svg xmlns="http://www.w3.org/2000/svg" id="Layer_1" data-name="Layer 1" viewBox="0 0 276.29 206.5">
    <defs>
        <style>
            .cls-1,.cls-2,.cls-3,.cls-5{fill:#fff;}.cls-1{opacity:0.35;}.cls-2{opacity:0.4;}.cls-3,.cls-4{opacity:0.25;}
        </style>
    </defs>
    <title>
        website-headers-v02
    </title>
    <path d="M1.36,205.67a1,1,0,0,1,.3-1.38h0a1,1,0,0,1,1.38.3H3a1,1,0,0,1-.3,1.38h0a1,1,0,0,1-.54.16h0A1,1,0,0,1,1.36,205.67ZM5.56,203a1,1,0,0,1,.3-1.38h0a1,1,0,0,1,1.38.3h0A1,1,0,0,1,7,203.26H7a1,1,0,0,1-.54.16h0A1,1,0,0,1,5.56,203Zm4.21-2.7a1,1,0,0,1,.3-1.39h0a1,1,0,0,1,1.38.3h0a1,1,0,0,1-.3,1.39h0a1.08,1.08,0,0,1-.54.15h0A1,1,0,0,1,9.77,200.26Zm4.2-2.71a1,1,0,0,1,.3-1.38h0a1,1,0,0,1,1.38.3h0a1,1,0,0,1-.3,1.38h0a1.06,1.06,0,0,1-.54.16h0A1,1,0,0,1,14,197.55Zm4.2-2.71a1,1,0,0,1,.3-1.38h0a1,1,0,0,1,1.39.3h0a1,1,0,0,1-.3,1.38h0a1,1,0,0,1-.54.16h0A1,1,0,0,1,18.17,194.84Zm4.21-2.71a1,1,0,0,1,.3-1.38h0a1,1,0,0,1,1.38.3h0a1,1,0,0,1-.3,1.38h0a1,1,0,0,1-.54.16h0A1,1,0,0,1,22.38,192.13Zm4.2-2.71a1,1,0,0,1,.3-1.38h0a1,1,0,0,1,1.38.3h0a1,1,0,0,1-.3,1.38h0a1,1,0,0,1-.54.16h0A1,1,0,0,1,26.58,189.42Zm4.2-2.7a1,1,0,0,1,.3-1.39h0a1,1,0,0,1,1.38.3h0a1,1,0,0,1-.3,1.38h0a1,1,0,0,1-.54.16h0A1,1,0,0,1,30.78,186.72ZM35,184a1,1,0,0,1,.3-1.38h0a1,1,0,0,1,1.38.3h0a1,1,0,0,1-.3,1.38h0a1.09,1.09,0,0,1-.54.16h0A1,1,0,0,1,35,184Zm4.2-2.71a1,1,0,0,1,.3-1.38h0a1,1,0,0,1,1.38.3h0a1,1,0,0,1-.3,1.38h0a1,1,0,0,1-.54.16h0A1,1,0,0,1,39.19,181.3Zm4.2-2.71a1,1,0,0,1,.3-1.38h0a1,1,0,0,1,1.38.3h0a1,1,0,0,1-.3,1.38h0a1,1,0,0,1-.54.16h0A1,1,0,0,1,43.39,178.59Zm4.2-2.71a1,1,0,0,1,.3-1.38h0a1,1,0,0,1,1.39.3h0a1,1,0,0,1-.3,1.38h0a1,1,0,0,1-.54.16h0A1,1,0,0,1,47.59,175.88Zm4.21-2.7a1,1,0,0,1,.3-1.39h0a1,1,0,0,1,1.38.3h0a1,1,0,0,1-.3,1.38h0a1,1,0,0,1-.54.16h0A1,1,0,0,1,51.8,173.18Zm4.2-2.71a1,1,0,0,1,.3-1.38h0a1,1,0,0,1,1.38.29h0a1,1,0,0,1-.3,1.39h0a1,1,0,0,1-.54.16h0A1,1,0,0,1,56,170.47Zm4.21-2.71a1,1,0,0,1,.29-1.38h0a1,1,0,0,1,1.39.3h0a1,1,0,0,1-.3,1.38h0a1,1,0,0,1-.55.16h0A1,1,0,0,1,60.21,167.76Zm4.2-2.71a1,1,0,0,1,.3-1.38h0a1,1,0,0,1,1.38.3h0a1,1,0,0,1-.3,1.38h0a1,1,0,0,1-.54.16h0A1,1,0,0,1,64.41,165.05Zm4.2-2.71a1,1,0,0,1,.3-1.38h0a1,1,0,0,1,1.38.3h0a1,1,0,0,1-.3,1.38h0a1,1,0,0,1-.54.16h0A1,1,0,0,1,68.61,162.34Zm4.2-2.7a1,1,0,0,1,.3-1.39h0a1,1,0,0,1,1.39.3h0a1,1,0,0,1-.3,1.38h0a1,1,0,0,1-.55.16h0A1,1,0,0,1,72.81,159.64ZM77,156.93a1,1,0,0,1,.3-1.39h0a1,1,0,0,1,1.38.3h0a1,1,0,0,1-.3,1.38h0a1,1,0,0,1-.54.17h0A1,1,0,0,1,77,156.93Zm4.2-2.71a1,1,0,0,1,.3-1.38h0a1,1,0,0,1,1.38.3h0a1,1,0,0,1-.3,1.38h0a1,1,0,0,1-.54.16h0A1,1,0,0,1,81.22,154.22Zm4.2-2.71a1,1,0,0,1,.3-1.38h0a1,1,0,0,1,1.38.3h0a1,1,0,0,1-.3,1.38h0a1,1,0,0,1-.54.16h0A1,1,0,0,1,85.42,151.51Zm4.21-2.71a1,1,0,0,1,.29-1.38h0a1,1,0,0,1,1.39.3h0a1,1,0,0,1-.3,1.38h0a1,1,0,0,1-.54.16h0A1,1,0,0,1,89.63,148.8Zm4.2-2.71a1,1,0,0,1,.3-1.38h0a1,1,0,0,1,1.38.3h0a1,1,0,0,1-.3,1.38h0a1,1,0,0,1-.54.16h0A1,1,0,0,1,93.83,146.09Zm4.2-2.7a1,1,0,0,1,.3-1.39h0a1,1,0,0,1,1.38.3h0a1,1,0,0,1-.3,1.38h0a1,1,0,0,1-.54.17h0A1,1,0,0,1,98,143.39Zm4.21-2.71a1,1,0,0,1,.29-1.38h0a1,1,0,0,1,1.39.29h0a1,1,0,0,1-.3,1.39h0a1,1,0,0,1-.54.16h0A1,1,0,0,1,102.24,140.68Zm4.2-2.71a1,1,0,0,1,.3-1.38h0a1,1,0,0,1,1.38.3h0a1,1,0,0,1-.3,1.38h0a1,1,0,0,1-.54.16h0A1,1,0,0,1,106.44,138Zm4.2-2.71a1,1,0,0,1,.3-1.38h0a1,1,0,0,1,1.38.3h0a1,1,0,0,1-.29,1.38h0a1,1,0,0,1-.55.16h0A1,1,0,0,1,110.64,135.26Zm4.21-2.71a1,1,0,0,1,.29-1.38h0a1,1,0,0,1,1.39.3h0a1,1,0,0,1-.3,1.38h0a1,1,0,0,1-.54.16h0A1,1,0,0,1,114.85,132.55Zm4.2-2.7a1,1,0,0,1,.3-1.39h0a1,1,0,0,1,1.38.3h0a1,1,0,0,1-.3,1.38h0a1,1,0,0,1-.54.16h0A1,1,0,0,1,119.05,129.85Zm4.2-2.71a1,1,0,0,1,.3-1.38h0a1,1,0,0,1,1.38.29h0a1,1,0,0,1-.3,1.39h0a1,1,0,0,1-.54.16h0A1,1,0,0,1,123.25,127.14Zm4.21-2.71a1,1,0,0,1,.3-1.38h0a1,1,0,0,1,1.37.3h0a1,1,0,0,1-.29,1.38h0a1,1,0,0,1-.55.16h0A1,1,0,0,1,127.46,124.43Zm4.2-2.71a1,1,0,0,1,.3-1.38h0a1,1,0,0,1,1.38.3h0A1,1,0,0,1,133,122h0a1,1,0,0,1-.54.16h0A1,1,0,0,1,131.66,121.72Zm4.2-2.71a1,1,0,0,1,.3-1.38h0a1,1,0,0,1,1.38.3h0a1,1,0,0,1-.3,1.38h0a1,1,0,0,1-.54.16h0A1,1,0,0,1,135.86,119Zm4.2-2.7a1,1,0,0,1,.3-1.39h0a1,1,0,0,1,1.38.3h0a1,1,0,0,1-.29,1.38h0a1,1,0,0,1-.54.16h0A1,1,0,0,1,140.06,116.31Zm4.21-2.71a1,1,0,0,1,.29-1.38h0a1,1,0,0,1,1.39.29h0a1,1,0,0,1-.3,1.39h0a1,1,0,0,1-.54.16h0A1,1,0,0,1,144.27,113.6Zm4.2-2.71a1,1,0,0,1,.3-1.38h0a1,1,0,0,1,1.38.3h0a1,1,0,0,1-.3,1.38h0a1,1,0,0,1-.54.16h0A1,1,0,0,1,148.47,110.89Zm4.2-2.71a1,1,0,0,1,.3-1.38h0a1,1,0,0,1,1.38.3h0a1,1,0,0,1-.29,1.38h0a1,1,0,0,1-.55.16h0A1,1,0,0,1,152.67,108.18Zm4.21-2.71a1,1,0,0,1,.3-1.38h0a1,1,0,0,1,1.38.3h0a1,1,0,0,1-.3,1.38h0a1,1,0,0,1-.54.16h0A1,1,0,0,1,156.88,105.47Zm4.2-2.71a1,1,0,0,1,.3-1.37h0a1,1,0,0,1,1.38.29h0a1,1,0,0,1-.3,1.38h0a1,1,0,0,1-.54.16h0A1,1,0,0,1,161.08,102.76Zm4.2-2.7a1,1,0,0,1,.3-1.38h0A1,1,0,0,1,167,99h0a1,1,0,0,1-.29,1.39h0a1.1,1.1,0,0,1-.55.16h0A1,1,0,0,1,165.28,100.06Zm4.21-2.71a1,1,0,0,1,.3-1.38h0a1,1,0,0,1,1.38.3h0a1,1,0,0,1-.3,1.38h0a1,1,0,0,1-.54.16h0A1,1,0,0,1,169.49,97.35Zm4.2-2.71a1,1,0,0,1,.3-1.38h0a1,1,0,0,1,1.38.3h0a1,1,0,0,1-.3,1.38h0a1,1,0,0,1-.54.16h0A1,1,0,0,1,173.69,94.64Zm4.2-2.71a1,1,0,0,1,.3-1.38h0a1,1,0,0,1,1.38.3h0a1,1,0,0,1-.3,1.38h0a1,1,0,0,1-.54.16h0A1,1,0,0,1,177.89,91.93Zm4.2-2.7a1,1,0,0,1,.3-1.39h0a1,1,0,0,1,1.39.3h0a1,1,0,0,1-.3,1.39h0a1.08,1.08,0,0,1-.54.15h0A1,1,0,0,1,182.09,89.23Zm4.21-2.71a1,1,0,0,1,.3-1.38h0a1,1,0,0,1,1.38.29h0a1,1,0,0,1-.3,1.39h0a1.09,1.09,0,0,1-.54.16h0A1,1,0,0,1,186.3,86.52Zm4.2-2.71a1,1,0,0,1,.3-1.38h0a1,1,0,0,1,1.38.3h0a1,1,0,0,1-.3,1.38h0a1,1,0,0,1-.54.16h0A1,1,0,0,1,190.5,83.81Zm4.2-2.71a1,1,0,0,1,.3-1.38h0a1,1,0,0,1,1.38.3h0a1,1,0,0,1-.29,1.38h0a1,1,0,0,1-.54.16h0A1,1,0,0,1,194.7,81.1Zm4.21-2.71a1,1,0,0,1,.3-1.38h0a1,1,0,0,1,1.38.3h0a1,1,0,0,1-.3,1.38h0a1,1,0,0,1-.54.16h0A1,1,0,0,1,198.91,78.39Zm4.2-2.7a1,1,0,0,1,.3-1.39h0a1,1,0,0,1,1.38.3h0a1,1,0,0,1-.3,1.38h0a1,1,0,0,1-.54.16h0A1,1,0,0,1,203.11,75.69ZM207.32,73a1,1,0,0,1,.29-1.38h0a1,1,0,0,1,1.39.3h0a1,1,0,0,1-.3,1.38h0a1.09,1.09,0,0,1-.54.16h0A1,1,0,0,1,207.32,73Zm4.2-2.71a1,1,0,0,1,.3-1.38h0a1,1,0,0,1,1.38.3h0a1,1,0,0,1-.3,1.38h0a1,1,0,0,1-.54.16h0A1,1,0,0,1,211.52,70.27Zm4.2-2.71a1,1,0,0,1,.3-1.38h0a1,1,0,0,1,1.38.3h0a1,1,0,0,1-.3,1.38h0a1,1,0,0,1-.54.16h0A1,1,0,0,1,215.72,67.56Zm4.2-2.71a1,1,0,0,1,.3-1.38h0a1,1,0,0,1,1.38.3h0a1,1,0,0,1-.3,1.38h0a1,1,0,0,1-.54.16h0A1,1,0,0,1,219.92,64.85Zm4.21-2.7a1,1,0,0,1,.3-1.39h0a1,1,0,0,1,1.38.3h0a1,1,0,0,1-.3,1.38h0a1,1,0,0,1-.54.16h0A1,1,0,0,1,224.13,62.15Zm4.2-2.71a1,1,0,0,1,.3-1.38h0a1,1,0,0,1,1.38.29h0a1,1,0,0,1-.3,1.39h0a1,1,0,0,1-.54.16h0A1,1,0,0,1,228.33,59.44Zm4.2-2.71a1,1,0,0,1,.3-1.38h0a1,1,0,0,1,1.38.3h0a1,1,0,0,1-.3,1.38h0a1,1,0,0,1-.54.16h0A1,1,0,0,1,232.53,56.73Zm4.2-2.71a1,1,0,0,1,.3-1.38h0a1,1,0,0,1,1.39.3h0a1,1,0,0,1-.3,1.38h0a1,1,0,0,1-.54.16h0A1,1,0,0,1,236.73,54Zm4.21-2.71a1,1,0,0,1,.3-1.38h0a1,1,0,0,1,1.38.3h0a1,1,0,0,1-.3,1.38h0a1,1,0,0,1-.54.16h0A1,1,0,0,1,240.94,51.31Zm4.2-2.71a1,1,0,0,1,.3-1.38h0a1,1,0,0,1,1.38.3h0a1,1,0,0,1-.3,1.38h0a1,1,0,0,1-.54.16h0A1,1,0,0,1,245.14,48.6Zm4.21-2.7a1,1,0,0,1,.29-1.39h0a1,1,0,0,1,1.39.3h0a1,1,0,0,1-.3,1.38h0a1,1,0,0,1-.55.16h0A1,1,0,0,1,249.35,45.9Zm4.2-2.71a1,1,0,0,1,.3-1.38h0a1,1,0,0,1,1.38.3h0a1,1,0,0,1-.3,1.38h0a1,1,0,0,1-.54.16h0A1,1,0,0,1,253.55,43.19Z" class="cls-1"/>
    <path d="M199,204.32l-4.58-6.56,1.23-.86,4.58,6.56Zm-9.15-13.13-4.58-6.56,1.24-.86,4.57,6.57Zm-9.15-13.12-4.57-6.57,1.23-.85,4.57,6.56Zm-9.15-13.13L167,158.38l1.23-.86,4.57,6.56Zm-9.15-13.13-4.57-6.56,1.23-.86,4.58,6.57Zm-9.14-13.12-4.58-6.57,1.23-.85,4.58,6.56Zm-9.15-13.13L139.5,119l1.23-.86,4.58,6.56Zm-9.15-13.13-4.57-6.56,1.23-.86,4.57,6.57Zm-9.15-13.12-4.57-6.57,1.23-.85L127,98.45Zm-9.15-13.13-4.57-6.56,1.23-.86,4.57,6.56Zm-9.15-13.13-4.57-6.56,1.23-.86,4.58,6.57ZM98.34,59.93l-4.58-6.57L95,52.51l4.58,6.56ZM89.19,46.8l-4.58-6.56,1.24-.86,4.57,6.56ZM80,33.67l-4.57-6.56,1.23-.86,4.57,6.57ZM70.89,20.55,66.32,14l1.23-.85,4.57,6.56ZM61.74,7.42,57.17.86,58.4,0,63,6.56Z" class="cls-1"/>
    <path d="M256.08,61.22c-.58,0-1.17,0-1.75-.07a20.25,20.25,0,1,1,21.89-18.47l-.75-.06.75.06a20.25,20.25,0,0,1-20.14,18.54Zm-.05-39a18.74,18.74,0,1,0,18.7,20.33h0a18.76,18.76,0,0,0-17.1-20.26C257.09,22.24,256.56,22.22,256,22.22Z" class="cls-1"/>
    <path d="M254.41,54.14a1,1,0,0,1-.87-1.11h0a1,1,0,0,1,1.11-.87h0a1,1,0,0,1,.88,1.11h0a1,1,0,0,1-1,.88h-.13ZM258.66,53a1,1,0,0,1,.66-1.25h0a1,1,0,0,1,1.25.66h0a1,1,0,0,1-.67,1.25h0a.92.92,0,0,1-.29,0h0A1,1,0,0,1,258.66,53Zm-9.46-.67a1,1,0,0,1-.34-1.37h0a1,1,0,0,1,1.37-.34h0a1,1,0,0,1,.34,1.37h0a1,1,0,0,1-.86.48h0A1,1,0,0,1,249.2,52.34Zm14.12-1.44a1,1,0,0,1,.1-1.41h0a1,1,0,0,1,1.41.1h0a1,1,0,0,1-.1,1.41h0a1,1,0,0,1-.65.24h0A1,1,0,0,1,263.32,50.9Zm-18.15-2.32a1,1,0,0,1,.24-1.4h0a1,1,0,0,1,1.4.25h0a1,1,0,0,1-.25,1.39h0A1,1,0,0,1,246,49h0A1,1,0,0,1,245.17,48.58Zm21.56-1.49a1,1,0,0,1-.48-1.33h0a1,1,0,0,1,1.33-.48h0a1,1,0,0,1,.48,1.33h0a1,1,0,0,1-.91.57h0A1.06,1.06,0,0,1,266.73,47.09ZM243,43.5a1,1,0,0,1,.8-1.17h0a1,1,0,0,1,1.17.79h0a1,1,0,0,1-.79,1.17h0l-.19,0h0A1,1,0,0,1,243,43.5Zm25.28-1.28a1,1,0,0,1-1-1h0v0h0a1,1,0,0,1,1-1h0a1,1,0,0,1,1,1h0v.06h0a1,1,0,0,1-1,1h0Zm-24.43-3a1,1,0,0,1-.75-1.2h0a1,1,0,0,1,1.2-.76h0a1,1,0,0,1,.75,1.2h0a1,1,0,0,1-1,.78h0A.91.91,0,0,1,243.86,39.18Zm22.56-2.63a1,1,0,0,1,.52-1.31h0a1,1,0,0,1,1.31.52h0a1,1,0,0,1-.52,1.32h0a1.09,1.09,0,0,1-.39.08h0A1,1,0,0,1,266.42,36.55Zm-20.78-2.16a1,1,0,0,1-.19-1.4h0a1,1,0,0,1,1.39-.2h0a1,1,0,0,1,.2,1.4h0a1,1,0,0,1-.8.4h0A1,1,0,0,1,245.64,34.39Zm18.08-1.67a1,1,0,0,1-.05-1.42h0a1,1,0,0,1,1.41,0h0a1,1,0,0,1,.05,1.42h0a1,1,0,0,1-.73.32h0A1,1,0,0,1,263.72,32.72Zm-14.5-2a1,1,0,0,1,.38-1.36h0a1,1,0,0,1,1.36.39h0a1,1,0,0,1-.38,1.36h0a1,1,0,0,1-.49.13h0A1,1,0,0,1,249.22,30.72Zm10.49-.41a1,1,0,0,1-.63-1.27h0a1,1,0,0,1,1.27-.62h0a1,1,0,0,1,.62,1.27h0a1,1,0,0,1-.94.67h0A.86.86,0,0,1,259.71,30.31ZM254,28.83a1,1,0,0,1,.91-1.08h0a1,1,0,0,1,1.08.91h0a1,1,0,0,1-.91,1.08H255A1,1,0,0,1,254,28.83Z" class="cls-1"/>
    <path d="M159.26,57.39a63.82,63.82,0,1,0,0,90.25A63.82,63.82,0,0,0,159.26,57.39Zm-81.95,82a52.08,52.08,0,1,1,73.65,0A52.07,52.07,0,0,1,77.31,139.34Z" class="cls-2"/>
    <path d="M151,65.69a52.08,52.08,0,1,0,0,73.65A52.07,52.07,0,0,0,151,65.69ZM81.62,135a46,46,0,1,1,65,0A46,46,0,0,1,81.62,135Z" class="cls-3"/>
    <rect width="25.26" height="11.1" x="47.45" y="151.02" class="cls-3" transform="translate(-93.11 88.34) rotate(-45)"/>
    <g class="cls-4">
        <circle cx="115.24" cy="89.41" r="17.31" class="cls-5"/>
    </g>
    <path d="M145.08,128.54a29.78,29.78,0,0,0-12.17-24,23.21,23.21,0,0,1-35.34,0,29.78,29.78,0,0,0-12.17,24" class="cls-3"/>
    <path d="M185.86,75.54a2.76,2.76,0,0,1-2.54-1.69,74.64,74.64,0,0,0-37.15-39,2.75,2.75,0,0,1,2.35-5,80.15,80.15,0,0,1,39.88,41.9,2.76,2.76,0,0,1-1.49,3.59A2.79,2.79,0,0,1,185.86,75.54Z" class="cls-3"/>
    <path d="M201,75.39a2.75,2.75,0,0,1-2.6-1.86,88.74,88.74,0,0,0-52-54.07,2.74,2.74,0,0,1,2-5.12,94.18,94.18,0,0,1,55.24,57.41,2.75,2.75,0,0,1-1.71,3.49A2.82,2.82,0,0,1,201,75.39Z" class="cls-3"/>
    <polygon points="25.85 206.5 59 173.35 51.03 165.38 10.12 206.5 25.85 206.5" class="cls-3"/>
    <path d="M10.11,206.5,51,165.38l-7.73-7.73-40,40a11.08,11.08,0,0,0-3.2,8.81Z" class="cls-2"/>
</svg>
