<svg xmlns="http://www.w3.org/2000/svg" id="Layer_1" data-name="Layer 1" viewBox="0 0 268.26 209.63">
    <defs>
        <style>
            .cls-1,.cls-3{opacity:0.35;}.cls-2,.cls-3,.cls-4,.cls-5{fill:#fff;}.cls-4{opacity:0.4;}.cls-5{opacity:0.25;}
        </style>
    </defs>
    <title>
        website-headers-v02
    </title>
    <g class="cls-1">
        <path d="M175.68,209.62a1,1,0,0,1-.38-.07,1.19,1.19,0,0,1-.33-.22,1,1,0,0,1-.21-1.09.56.56,0,0,1,.09-.17.61.61,0,0,1,.12-.15.78.78,0,0,1,.33-.21.92.92,0,0,1,.76,0,.72.72,0,0,1,.33.21,1,1,0,0,1,0,1.41,1.19,1.19,0,0,1-.33.22A1,1,0,0,1,175.68,209.62Z" class="cls-2"/>
        <path d="M174.68,203.61a1,1,0,0,1,1-1h0a1,1,0,0,1,1,1h0a1,1,0,0,1-1,1h0A1,1,0,0,1,174.68,203.61Zm0-5a1,1,0,0,1,1-1h0a1,1,0,0,1,1,1h0a1,1,0,0,1-1,1h0A1,1,0,0,1,174.68,198.6Zm0-5a1,1,0,0,1,1-1h0a1,1,0,0,1,1,1h0a1,1,0,0,1-1,1h0A1,1,0,0,1,174.68,193.59Zm0-5a1,1,0,0,1,1-1h0a1,1,0,0,1,1,1h0a1,1,0,0,1-1,1h0A1,1,0,0,1,174.68,188.58Zm0-5a1,1,0,0,1,1-1h0a1,1,0,0,1,1,1h0a1,1,0,0,1-1,1h0A1,1,0,0,1,174.68,183.58Zm0-5a1,1,0,0,1,1-1h0a1,1,0,0,1,1,1h0a1,1,0,0,1-1,1h0A1,1,0,0,1,174.68,178.57Zm0-5a1,1,0,0,1,1-1h0a1,1,0,0,1,1,1h0a1,1,0,0,1-1,1h0A1,1,0,0,1,174.68,173.56Zm0-5a1,1,0,0,1,1-1h0a1,1,0,0,1,1,1h0a1,1,0,0,1-1,1h0A1,1,0,0,1,174.68,168.55Zm0-5a1,1,0,0,1,1-1h0a1,1,0,0,1,1,1h0a1,1,0,0,1-1,1h0A1,1,0,0,1,174.68,163.54Zm0-5a1,1,0,0,1,1-1h0a1,1,0,0,1,1,1h0a1,1,0,0,1-1,1h0A1,1,0,0,1,174.68,158.53Zm0-5a1,1,0,0,1,1-1h0a1,1,0,0,1,1,1h0a1,1,0,0,1-1,1h0A1,1,0,0,1,174.68,153.52Zm0-5a1,1,0,0,1,1-1h0a1,1,0,0,1,1,1h0a1,1,0,0,1-1,1h0A1,1,0,0,1,174.68,148.51Zm0-5a1,1,0,0,1,1-1h0a1,1,0,0,1,1,1h0a1,1,0,0,1-1,1h0A1,1,0,0,1,174.68,143.5Zm0-5a1,1,0,0,1,1-1h0a1,1,0,0,1,1,1h0a1,1,0,0,1-1,1h0A1,1,0,0,1,174.68,138.49Zm0-5a1,1,0,0,1,1-1h0a1,1,0,0,1,1,1h0a1,1,0,0,1-1,1h0A1,1,0,0,1,174.68,133.49Zm0-5a1,1,0,0,1,1-1h0a1,1,0,0,1,1,1h0a1,1,0,0,1-1,1h0A1,1,0,0,1,174.68,128.48Zm0-5a1,1,0,0,1,1-1h0a1,1,0,0,1,1,1h0a1,1,0,0,1-1,1h0A1,1,0,0,1,174.68,123.47Zm0-5a1,1,0,0,1,1-1h0a1,1,0,0,1,1,1h0a1,1,0,0,1-1,1h0A1,1,0,0,1,174.68,118.46Zm0-5a1,1,0,0,1,1-1h0a1,1,0,0,1,1,1h0a1,1,0,0,1-1,1h0A1,1,0,0,1,174.68,113.46Zm0-5a1,1,0,0,1,1-1h0a1,1,0,0,1,1,1h0a1,1,0,0,1-1,1h0A1,1,0,0,1,174.68,108.44Zm0-5a1,1,0,0,1,1-1h0a1,1,0,0,1,1,1h0a1,1,0,0,1-1,1h0A1,1,0,0,1,174.68,103.43Zm0-5a1,1,0,0,1,1-1h0a1,1,0,0,1,1,1h0a1,1,0,0,1-1,1h0A1,1,0,0,1,174.68,98.42Zm0-5a1,1,0,0,1,1-1h0a1,1,0,0,1,1,1h0a1,1,0,0,1-1,1h0A1,1,0,0,1,174.68,93.42Zm0-5a1,1,0,0,1,1-1h0a1,1,0,0,1,1,1h0a1,1,0,0,1-1,1h0A1,1,0,0,1,174.68,88.4Zm0-5a1,1,0,0,1,1-1h0a1,1,0,0,1,1,1h0a1,1,0,0,1-1,1h0A1,1,0,0,1,174.68,83.39Zm0-5a1,1,0,0,1,1-1h0a1,1,0,0,1,1,1h0a1,1,0,0,1-1,1h0A1,1,0,0,1,174.68,78.39Zm0-5a1,1,0,0,1,1-1h0a1,1,0,0,1,1,1h0a1,1,0,0,1-1,1h0A1,1,0,0,1,174.68,73.38Zm0-5a1,1,0,0,1,1-1h0a1,1,0,0,1,1,1h0a1,1,0,0,1-1,1h0A1,1,0,0,1,174.68,68.38Zm0-5a1,1,0,0,1,1-1h0a1,1,0,0,1,1,1h0a1,1,0,0,1-1,1h0A1,1,0,0,1,174.68,63.36Zm0-5a1,1,0,0,1,1-1h0a1,1,0,0,1,1,1h0a1,1,0,0,1-1,1h0A1,1,0,0,1,174.68,58.35Zm0-5a1,1,0,0,1,1-1h0a1,1,0,0,1,1,1h0a1,1,0,0,1-1,1h0A1,1,0,0,1,174.68,53.34Zm0-5a1,1,0,0,1,1-1h0a1,1,0,0,1,1,1h0a1,1,0,0,1-1,1h0A1,1,0,0,1,174.68,48.33Zm0-5a1,1,0,0,1,1-1h0a1,1,0,0,1,1,1h0a1,1,0,0,1-1,1h0A1,1,0,0,1,174.68,43.32Zm0-5a1,1,0,0,1,1-1h0a1,1,0,0,1,1,1h0a1,1,0,0,1-1,1h0A1,1,0,0,1,174.68,38.31Zm0-5a1,1,0,0,1,1-1h0a1,1,0,0,1,1,1h0a1,1,0,0,1-1,1h0A1,1,0,0,1,174.68,33.3Zm0-5a1,1,0,0,1,1-1h0a1,1,0,0,1,1,1h0a1,1,0,0,1-1,1h0A1,1,0,0,1,174.68,28.3Z" class="cls-2"/>
        <path d="M175.68,24.28a1,1,0,0,1-.38-.07A.87.87,0,0,1,175,24a1,1,0,0,1-.29-.71,1.23,1.23,0,0,1,0-.19.7.7,0,0,1,.06-.19.56.56,0,0,1,.09-.17.88.88,0,0,1,.12-.15,1.27,1.27,0,0,1,.33-.22,1,1,0,0,1,.76,0,1.12,1.12,0,0,1,.33.22.88.88,0,0,1,.12.15.56.56,0,0,1,.09.17.7.7,0,0,1,.06.19,1.23,1.23,0,0,1,0,.19,1,1,0,0,1-.29.71.87.87,0,0,1-.33.22A1,1,0,0,1,175.68,24.28Z" class="cls-2"/>
    </g>
    <path d="M37.58,152.27,36.76,151l6.69-4.38.82,1.26ZM51,143.51l-.83-1.26,6.7-4.38.82,1.25Zm13.38-8.77-.82-1.25,6.69-4.39.83,1.26ZM77.74,126l-.82-1.26,6.69-4.38.82,1.26Zm13.38-8.76L90.3,116l6.7-4.38.82,1.25Zm13.39-8.77-.82-1.25,6.69-4.39.83,1.26Zm13.39-8.76-.82-1.26,6.69-4.38.82,1.26Zm13.39-8.77-.83-1.25,6.7-4.38.82,1.25Zm13.38-8.76-.82-1.25,6.69-4.39.83,1.26Zm13.39-8.76-.82-1.26,6.69-4.38.82,1.26Zm13.38-8.77-.82-1.25,6.7-4.38.82,1.25Zm13.39-8.76L184,54.61l6.69-4.38.82,1.26Zm13.39-8.76-.82-1.26,6.69-4.38.82,1.26Zm13.38-8.77-.82-1.25,6.7-4.38L218.3,34ZM225,29.58l-.82-1.26,6.69-4.38.82,1.26Zm13.39-8.76-.82-1.26,6.69-4.38.82,1.25Zm13.38-8.77-.82-1.25,6.69-4.38.83,1.25Zm13.39-8.76L264.33,2l3.1-2,.83,1.26Z" class="cls-3"/>
    <path d="M36.75,188A36.75,36.75,0,1,1,73.5,151.22,36.79,36.79,0,0,1,36.75,188Zm0-72A35.25,35.25,0,1,0,72,151.22,35.29,35.29,0,0,0,36.75,116Z" class="cls-3"/>
    <path d="M35.78,173.88a1,1,0,0,1,1-1h0a1,1,0,0,1,1,1h0a1,1,0,0,1-1,1h0A1,1,0,0,1,35.78,173.88Zm-4.26.41a1,1,0,0,1-.76-1.2h0a1,1,0,0,1,1.2-.75h0a1,1,0,0,1,.75,1.19h0a1,1,0,0,1-1,.79h0A.76.76,0,0,1,31.52,174.29Zm9.32-.76a1,1,0,0,1,.75-1.2h0a1,1,0,0,1,1.2.75h0a1,1,0,0,1-.75,1.2h0l-.23,0h0A1,1,0,0,1,40.84,173.53Zm-14.32-1h0a1,1,0,0,1-.46-1.34h0a1,1,0,0,1,1.33-.46h0a1,1,0,0,1,.47,1.34h0a1,1,0,0,1-.91.57h0A1,1,0,0,1,26.52,172.55Zm19.18-.49a1,1,0,0,1,.46-1.33h0a1,1,0,0,1,1.34.46h0a1,1,0,0,1-.47,1.34h0a1.12,1.12,0,0,1-.43.1h0A1,1,0,0,1,45.7,172.06ZM22,169.73a1,1,0,0,1-.16-1.4h0a1,1,0,0,1,1.4-.16h0a1,1,0,0,1,.17,1.4h0a1,1,0,0,1-.79.39h0A1,1,0,0,1,22,169.73Zm28.07-.18a1,1,0,0,1,.16-1.41h0a1,1,0,0,1,1.41.16h0a1,1,0,0,1-.16,1.41h0a1,1,0,0,1-.62.21h0A1,1,0,0,1,50.1,169.55ZM18.28,166h0a1,1,0,0,1,.16-1.4h0a1,1,0,0,1,1.4.15h0a1,1,0,0,1-.15,1.41h0a1,1,0,0,1-.63.23h0A1,1,0,0,1,18.28,166Zm35.56.12a1,1,0,0,1-.15-1.41h0a1,1,0,0,1,1.4-.16h0a1,1,0,0,1,.16,1.41h0a1,1,0,0,1-.78.38h0A1,1,0,0,1,53.84,166.12Zm-38.38-4.6h0a1,1,0,0,1,.47-1.33h0a1,1,0,0,1,1.33.46h0a1,1,0,0,1-.46,1.33h0a1,1,0,0,1-.44.1h0A1,1,0,0,1,15.46,161.52Zm41.27.44a1,1,0,0,1-.46-1.35h0a1,1,0,0,1,1.33-.47h0a1,1,0,0,1,.47,1.34h0a1,1,0,0,1-.9.57h0A1.33,1.33,0,0,1,56.73,162Zm-43-5.43a1,1,0,0,1,.75-1.2h0a1,1,0,0,1,1.2.75h0a1,1,0,0,1-.75,1.2h0l-.23,0h0A1,1,0,0,1,13.7,156.53Zm44.92.7a1,1,0,0,1-.75-1.19h0a1,1,0,0,1,1.19-.76h0a1,1,0,0,1,.76,1.2h0a1,1,0,0,1-1,.78h0A.91.91,0,0,1,58.62,157.23Zm-45.52-6a1,1,0,0,1,1-1h0a1,1,0,0,1,1,1h0a1,1,0,0,1-1,1h0A1,1,0,0,1,13.1,151.27Zm45.31-.05v-.05h0v0h0a1,1,0,0,1,1-1h0a1,1,0,0,1,1,1h0a.09.09,0,0,1,0,0h0a.11.11,0,0,1,0,.05h0a1,1,0,0,1-1,1h0A1,1,0,0,1,58.41,151.22Zm-44-4a1,1,0,0,1-.75-1.2h0a1,1,0,0,1,1.19-.76h0a1,1,0,0,1,.76,1.21v0a1,1,0,0,1-1,.79h0Zm43.42-.89h0a1,1,0,0,1,.75-1.2h0a1,1,0,0,1,1.2.74h0a1,1,0,0,1-.75,1.2h0a.91.91,0,0,1-.23,0h0A1,1,0,0,1,57.85,146.32Zm-42-4a1,1,0,0,1-.47-1.34h0a1,1,0,0,1,1.34-.47h0a1,1,0,0,1,.47,1.35h0a1,1,0,0,1-.9.56h0A1.12,1.12,0,0,1,15.88,142.34Zm40.35-.59a1,1,0,0,1,.46-1.33h0a1,1,0,0,1,1.34.46h0a1,1,0,0,1-.46,1.33h0a1,1,0,0,1-.44.1h0A1,1,0,0,1,56.23,141.75Zm-37.84-3.83a1,1,0,0,1-.17-1.4h0a1,1,0,0,1,1.41-.17h0a1,1,0,0,1,.16,1.41h0a1,1,0,0,1-.78.38h0A1,1,0,0,1,18.39,137.92Zm35.24-.25a1,1,0,0,1,.16-1.42h0a1,1,0,0,1,1.4.15h0a1,1,0,0,1-.15,1.41h0a1,1,0,0,1-.63.22h0A1,1,0,0,1,53.63,137.67Zm-31.83-3.5a1,1,0,0,1,.16-1.4h0a1,1,0,0,1,1.4.15h0a1,1,0,0,1-.15,1.4h0a1.07,1.07,0,0,1-.63.22h0A1,1,0,0,1,21.8,134.17Zm28.39.07a1,1,0,0,1-.16-1.4h0a1,1,0,0,1,1.41-.16h0a1,1,0,0,1,.16,1.4h0a1,1,0,0,1-.79.38h0A1,1,0,0,1,50.19,134.24Zm-24.22-3a1,1,0,0,1,.46-1.34h0a1,1,0,0,1,1.33.47h0a1,1,0,0,1-.46,1.33h0a1,1,0,0,1-.44.1h0A1,1,0,0,1,26,131.27Zm20.11.4a1,1,0,0,1-.47-1.33h0a1,1,0,0,1,1.33-.46h0a1,1,0,0,1,.48,1.33h0a1,1,0,0,1-.91.56h0A1,1,0,0,1,46.08,131.67Zm-15.41-2.29a1,1,0,0,1,.75-1.21h0a1,1,0,0,1,1.2.75h0a1,1,0,0,1-.75,1.2h0a.9.9,0,0,1-.23,0h0A1,1,0,0,1,30.67,129.38Zm10.83.71a1,1,0,0,1-.75-1.19h0a1,1,0,0,1,1.19-.76h0a1,1,0,0,1,.76,1.19h0a1,1,0,0,1-1,.78h0A.86.86,0,0,1,41.5,130.09Zm-5.82-1.52a1,1,0,0,1,1-1h0a1,1,0,0,1,1,1h0a1,1,0,0,1-1,1h0A1,1,0,0,1,35.68,128.57Z" class="cls-3"/>
    <path d="M175.68,20.13a4.68,4.68,0,1,1,4.67-4.67A4.68,4.68,0,0,1,175.68,20.13Zm0-8.35a3.68,3.68,0,1,0,3.67,3.68A3.67,3.67,0,0,0,175.68,11.78Z" class="cls-3"/>
    <path d="M208.51,98.61H198.8V70.53a23.58,23.58,0,1,0-47.15,0V98.61h-9.71V70.53a33.29,33.29,0,1,1,66.57,0Z" class="cls-4"/>
    <path d="M146.79,98.61H124.26v64.15H226.19V98.61Zm35.72,48a7.11,7.11,0,1,1-14.22,0V130.68a7.11,7.11,0,0,1,14.22,0Z" class="cls-5"/>
    <rect width="101.94" height="15.26" x="124.26" y="162.76" class="cls-4"/>
</svg>
