<svg xmlns="http://www.w3.org/2000/svg" id="Layer_1" data-name="Layer 1" viewBox="0 0 328.17 206.5">
    <defs>
        <style>
            .cls-1,.cls-2,.cls-3,.cls-5{fill:#fff;}.cls-1{opacity:0.35;}.cls-2{opacity:0.4;}.cls-3,.cls-4{opacity:0.25;}
        </style>
    </defs>
    <title>
        website-headers-v02
    </title>
    <path d="M45,205.67a1,1,0,0,1,.3-1.38h0a1,1,0,0,1,1.38.29h0a1,1,0,0,1-.3,1.39h0a1,1,0,0,1-.54.16h0A1,1,0,0,1,45,205.67Zm4.2-2.71a1,1,0,0,1,.3-1.38h0a1,1,0,0,1,1.38.3h0a1,1,0,0,1-.29,1.38h0a1,1,0,0,1-.54.16h0A1,1,0,0,1,49.16,203Zm4.21-2.71a1,1,0,0,1,.3-1.38h0a1,1,0,0,1,1.38.3h0a1,1,0,0,1-.3,1.38h0a1,1,0,0,1-.54.16h0A1,1,0,0,1,53.37,200.25Zm4.19-2.71a1,1,0,0,1,.31-1.38h0a1,1,0,0,1,1.38.3h0a1,1,0,0,1-.3,1.38h0a1,1,0,0,1-.54.16h0A1,1,0,0,1,57.56,197.54Zm4.21-2.71a1,1,0,0,1,.29-1.38h0a1,1,0,0,1,1.39.3h0a1,1,0,0,1-.31,1.38h0a.91.91,0,0,1-.54.16h0A1,1,0,0,1,61.77,194.83Zm4.21-2.7a1,1,0,0,1,.29-1.39h0a1,1,0,0,1,1.39.3h0a1,1,0,0,1-.31,1.38h0a1,1,0,0,1-.54.16h0A1,1,0,0,1,66,192.13Zm4.2-2.71a1,1,0,0,1,.3-1.38h0a1,1,0,0,1,1.37.29h0a1,1,0,0,1-.29,1.39h0a1,1,0,0,1-.54.16h0A1,1,0,0,1,70.18,189.42Zm4.2-2.71a1,1,0,0,1,.3-1.38h0a1,1,0,0,1,1.38.3h0a1,1,0,0,1-.3,1.38h0a1,1,0,0,1-.54.16h0A1,1,0,0,1,74.38,186.71ZM78.59,184a1,1,0,0,1,.3-1.38h0a1,1,0,0,1,1.38.3h0a1,1,0,0,1-.3,1.38h0a1,1,0,0,1-.54.16h0A1,1,0,0,1,78.59,184Zm4.2-2.71a1,1,0,0,1,.3-1.38h0a1,1,0,0,1,1.38.3h0a1,1,0,0,1-.3,1.38h0a1,1,0,0,1-.54.16h0A1,1,0,0,1,82.79,181.29Zm4.2-2.7a1,1,0,0,1,.3-1.38h0a1,1,0,0,1,1.38.29h0a1,1,0,0,1-.3,1.39h0a1,1,0,0,1-.53.15h0A1,1,0,0,1,87,178.59Zm4.2-2.71a1,1,0,0,1,.31-1.38h0a1,1,0,0,1,1.38.29h0a1,1,0,0,1-.3,1.39h0a1,1,0,0,1-.54.16h0A1,1,0,0,1,91.19,175.88Zm4.2-2.71a1,1,0,0,1,.31-1.38h0a1,1,0,0,1,1.38.3h0a1,1,0,0,1-.31,1.38h0a.94.94,0,0,1-.53.16h0A1,1,0,0,1,95.39,173.17Zm4.21-2.71a1,1,0,0,1,.29-1.38h0a1,1,0,0,1,1.38.3h0a1,1,0,0,1-.29,1.38h0a1,1,0,0,1-.54.16h0A1,1,0,0,1,99.6,170.46Zm4.2-2.71a1,1,0,0,1,.3-1.38h0a1,1,0,0,1,1.38.3h0a1,1,0,0,1-.29,1.38h0a1,1,0,0,1-.55.16h0A1,1,0,0,1,103.8,167.75ZM108,165a1,1,0,0,1,.3-1.37h0a1,1,0,0,1,1.38.29h0a1,1,0,0,1-.3,1.39h0a1,1,0,0,1-.54.15h0A1,1,0,0,1,108,165Zm4.2-2.7a1,1,0,0,1,.3-1.38h0a1,1,0,0,1,1.38.29h0a1,1,0,0,1-.3,1.39h0a1,1,0,0,1-.54.16h0A1,1,0,0,1,112.21,162.34Zm4.2-2.71a1,1,0,0,1,.3-1.38h0a1,1,0,0,1,1.38.3h0a1,1,0,0,1-.29,1.38h0a1,1,0,0,1-.55.16h0A1,1,0,0,1,116.41,159.63Zm4.21-2.71a1,1,0,0,1,.3-1.38h0a1,1,0,0,1,1.38.3h0a1,1,0,0,1-.3,1.38h0a1,1,0,0,1-.54.16h0A1,1,0,0,1,120.62,156.92Zm4.19-2.71a1,1,0,0,1,.31-1.38h0a1,1,0,0,1,1.38.3h0a1,1,0,0,1-.3,1.38h0a1,1,0,0,1-.54.16h0A1,1,0,0,1,124.81,154.21Zm4.21-2.7a1,1,0,0,1,.29-1.38h0a1,1,0,0,1,1.39.29h0a1,1,0,0,1-.31,1.39h0a1,1,0,0,1-.52.15h0A1,1,0,0,1,129,151.51Zm4.21-2.71a1,1,0,0,1,.29-1.38h0a1,1,0,0,1,1.39.29h0a1,1,0,0,1-.31,1.39h0a1,1,0,0,1-.54.16h0A1,1,0,0,1,133.23,148.8Zm4.2-2.71a1,1,0,0,1,.3-1.38h0a1,1,0,0,1,1.37.29h0a1,1,0,0,1-.29,1.39h0a1,1,0,0,1-.54.16h0A1,1,0,0,1,137.43,146.09Zm4.2-2.71a1,1,0,0,1,.3-1.38h0a1,1,0,0,1,1.38.3h0a1,1,0,0,1-.3,1.38h0a.94.94,0,0,1-.53.16h0A1,1,0,0,1,141.63,143.38Zm4.2-2.71a1,1,0,0,1,.31-1.38h0a1,1,0,0,1,1.38.3h0a1,1,0,0,1-.3,1.38h0a1,1,0,0,1-.54.16h0A1,1,0,0,1,145.83,140.67ZM150,138a1,1,0,0,1,.3-1.38h0a1,1,0,0,1,1.38.3h0a1,1,0,0,1-.3,1.38h0a1,1,0,0,1-.54.16h0A1,1,0,0,1,150,138Zm4.2-2.7a1,1,0,0,1,.3-1.38h0a1,1,0,0,1,1.38.29h0a1,1,0,0,1-.3,1.39h0a1,1,0,0,1-.54.16h0A1,1,0,0,1,154.24,135.26Zm4.2-2.71a1,1,0,0,1,.31-1.38h0a1,1,0,0,1,1.37.3h0a1,1,0,0,1-.29,1.38h0a1,1,0,0,1-.54.16h0A1,1,0,0,1,158.44,132.55Zm4.2-2.71a1,1,0,0,1,.31-1.38h0a1,1,0,0,1,1.38.3h0a1,1,0,0,1-.31,1.38h0a.94.94,0,0,1-.53.16h0A1,1,0,0,1,162.64,129.84Zm4.21-2.71a1,1,0,0,1,.29-1.38h0a1,1,0,0,1,1.38.3h0a1,1,0,0,1-.29,1.38h0a1,1,0,0,1-.54.16h0A1,1,0,0,1,166.85,127.13Zm4.2-2.71a1,1,0,0,1,.3-1.38h0a1,1,0,0,1,1.38.3h0a1,1,0,0,1-.29,1.39h0a1.08,1.08,0,0,1-.55.15h0A1,1,0,0,1,171.05,124.42Zm4.21-2.7a1,1,0,0,1,.3-1.38h0a1,1,0,0,1,1.38.29h0a1,1,0,0,1-.3,1.39h0a1,1,0,0,1-.54.16h0A1,1,0,0,1,175.26,121.72Zm4.2-2.71a1,1,0,0,1,.3-1.38h0a1,1,0,0,1,1.38.3h0a1,1,0,0,1-.3,1.38h0a1,1,0,0,1-.54.16h0A1,1,0,0,1,179.46,119Zm4.2-2.71a1,1,0,0,1,.3-1.38h0a1,1,0,0,1,1.38.3h0a1,1,0,0,1-.29,1.38h0a1,1,0,0,1-.54.16h0A1,1,0,0,1,183.66,116.3Zm4.21-2.71a1,1,0,0,1,.3-1.38h0a1,1,0,0,1,1.38.3h0a1,1,0,0,1-.3,1.38h0a1,1,0,0,1-.54.16h0A1,1,0,0,1,187.87,113.59Zm4.19-2.71a1,1,0,0,1,.31-1.38h0a1,1,0,0,1,1.38.3h0a1,1,0,0,1-.3,1.39h0a1.08,1.08,0,0,1-.54.15h0A1,1,0,0,1,192.06,110.88Zm4.21-2.7a1,1,0,0,1,.29-1.39h0a1,1,0,0,1,1.39.3h0a1,1,0,0,1-.31,1.39h0a1,1,0,0,1-.54.16h0A1,1,0,0,1,196.27,108.18Zm4.21-2.71a1,1,0,0,1,.29-1.38h0a1,1,0,0,1,1.39.3h0a1,1,0,0,1-.31,1.38h0a1,1,0,0,1-.54.16h0A1,1,0,0,1,200.48,105.47Zm4.2-2.71a1,1,0,0,1,.3-1.38h0a1,1,0,0,1,1.37.3h0a1,1,0,0,1-.29,1.38h0a1,1,0,0,1-.54.16h0A1,1,0,0,1,204.68,102.76Zm4.2-2.71a1,1,0,0,1,.3-1.38h0a1,1,0,0,1,1.38.3h0a1,1,0,0,1-.3,1.38h0a1,1,0,0,1-.54.16h0A1,1,0,0,1,208.88,100.05Zm4.2-2.71a1,1,0,0,1,.31-1.38h0a1,1,0,0,1,1.38.3h0a1,1,0,0,1-.3,1.38h0a1,1,0,0,1-.54.16h0A1,1,0,0,1,213.08,97.34Zm4.21-2.7a1,1,0,0,1,.3-1.39h0a1,1,0,0,1,1.38.3h0a1,1,0,0,1-.3,1.39h0a1.09,1.09,0,0,1-.54.16h0A1,1,0,0,1,217.29,94.64Zm4.2-2.71a1,1,0,0,1,.3-1.38h0a1,1,0,0,1,1.38.3h0a1,1,0,0,1-.3,1.38h0a1,1,0,0,1-.54.16h0A1,1,0,0,1,221.49,91.93Zm4.2-2.71a1,1,0,0,1,.3-1.38h0a1,1,0,0,1,1.38.3h0a1,1,0,0,1-.29,1.38h0a1,1,0,0,1-.54.16h0A1,1,0,0,1,225.69,89.22Zm4.2-2.71a1,1,0,0,1,.31-1.38h0a1,1,0,0,1,1.38.3h0a1,1,0,0,1-.31,1.38h0a1,1,0,0,1-.54.16h0A1,1,0,0,1,229.89,86.51Zm4.21-2.71a1,1,0,0,1,.29-1.38h0a1,1,0,0,1,1.38.3h0a1,1,0,0,1-.29,1.38h0a1,1,0,0,1-.54.16h0A1,1,0,0,1,234.1,83.8Zm4.2-2.7a1,1,0,0,1,.3-1.39h0A1,1,0,0,1,240,80h0a1,1,0,0,1-.29,1.39h0a1.08,1.08,0,0,1-.55.15h0A1,1,0,0,1,238.3,81.1Zm4.21-2.71a1,1,0,0,1,.3-1.38h0a1,1,0,0,1,1.38.29h0a1,1,0,0,1-.3,1.39h0a1.12,1.12,0,0,1-.54.16h0A1,1,0,0,1,242.51,78.39Zm4.2-2.71a1,1,0,0,1,.3-1.38h0a1,1,0,0,1,1.38.3h0a1,1,0,0,1-.3,1.38h0a1,1,0,0,1-.54.16h0A1,1,0,0,1,246.71,75.68ZM250.92,73a1,1,0,0,1,.29-1.38h0a1,1,0,0,1,1.38.3h0a1,1,0,0,1-.29,1.38h0a1,1,0,0,1-.55.16h0A1,1,0,0,1,250.92,73Zm4.2-2.71a1,1,0,0,1,.3-1.38h0a1,1,0,0,1,1.38.3h0a1,1,0,0,1-.3,1.38h0a1,1,0,0,1-.54.16h0A1,1,0,0,1,255.12,70.26Zm4.19-2.7a1,1,0,0,1,.31-1.39h0a1,1,0,0,1,1.38.3h0a1,1,0,0,1-.3,1.39h0a1,1,0,0,1-.54.15h0A1,1,0,0,1,259.31,67.56Zm4.21-2.71a1,1,0,0,1,.29-1.39h0a1,1,0,0,1,1.4.31h0a1,1,0,0,1-.3,1.38h0a1.13,1.13,0,0,1-.56.16h0A1,1,0,0,1,263.52,64.85Zm4.21-2.71a1,1,0,0,1,.29-1.38h0a1,1,0,0,1,1.39.3h0a1,1,0,0,1-.31,1.38h0a1,1,0,0,1-.54.16h0A1,1,0,0,1,267.73,62.14Zm4.2-2.71a1,1,0,0,1,.3-1.38h0a1,1,0,0,1,1.37.3h0a1,1,0,0,1-.29,1.38h0a1,1,0,0,1-.54.16h0A1,1,0,0,1,271.93,59.43Zm4.2-2.71a1,1,0,0,1,.3-1.38h0a1,1,0,0,1,1.38.3h0a1,1,0,0,1-.29,1.38h0a1,1,0,0,1-.54.16h0A1,1,0,0,1,276.13,56.72Zm4.21-2.7a1,1,0,0,1,.3-1.39h0a1,1,0,0,1,1.38.3h0a1,1,0,0,1-.3,1.38h0a1,1,0,0,1-.54.17h0A1,1,0,0,1,280.34,54Zm4.2-2.71a1,1,0,0,1,.3-1.39h0a1,1,0,0,1,1.38.31h0a1,1,0,0,1-.3,1.38h0a1.09,1.09,0,0,1-.54.16h0A1,1,0,0,1,284.54,51.31Zm4.19-2.71a1,1,0,0,1,.31-1.38h0a1,1,0,0,1,1.38.3h0a1,1,0,0,1-.29,1.38h0a1,1,0,0,1-.55.16h0A1,1,0,0,1,288.73,48.6ZM293,45.89a1,1,0,0,1,.28-1.38h0a1,1,0,0,1,1.4.3h0a1,1,0,0,1-.3,1.38h0a1,1,0,0,1-.54.16h0A1,1,0,0,1,293,45.89Zm4.19-2.71a1,1,0,0,1,.31-1.38h0a1,1,0,0,1,1.38.3h0a1,1,0,0,1-.31,1.38h0a1,1,0,0,1-.54.16h0A1,1,0,0,1,297.14,43.18Z" class="cls-1"/>
    <path d="M242.57,204.32,238,197.76l1.23-.86,4.58,6.56Zm-9.15-13.13-4.58-6.56,1.23-.86,4.58,6.57Zm-9.15-13.12-4.57-6.57,1.23-.85,4.57,6.56Zm-9.15-13.13-4.57-6.56,1.23-.86,4.57,6.56ZM206,151.81l-4.57-6.56,1.23-.86L207.2,151Zm-9.15-13.12-4.57-6.57,1.23-.85,4.58,6.56Zm-9.14-13.13L183.1,119l1.23-.86,4.58,6.56Zm-9.15-13.13L174,105.87l1.24-.86,4.57,6.57Zm-9.15-13.12-4.57-6.57,1.23-.85,4.57,6.56Zm-9.15-13.13-4.57-6.56,1.23-.86,4.57,6.56Zm-9.15-13.13-4.57-6.56,1.23-.86,4.57,6.57Zm-9.14-13.12-4.58-6.57,1.23-.85,4.58,6.56ZM132.79,46.8l-4.58-6.56,1.23-.86L134,45.94Zm-9.15-13.13-4.58-6.56,1.24-.86,4.57,6.57Zm-9.15-13.12L109.92,14l1.23-.85,4.57,6.56ZM105.34,7.42,100.77.86,102,0l4.57,6.56Z" class="cls-1"/>
    <path d="M299.68,61.22c-.58,0-1.17,0-1.75-.07a20.33,20.33,0,1,1,1.75.07Zm-.07-39a18.81,18.81,0,1,0,1.62.07C300.69,22.24,300.14,22.22,299.61,22.22Z" class="cls-1"/>
    <path d="M298,54.14a1,1,0,0,1-.87-1.12h0a1,1,0,0,1,1.11-.87h0a1,1,0,0,1,.87,1.12h0a1,1,0,0,1-1,.87H298ZM302.26,53a1,1,0,0,1,.66-1.25h0a1,1,0,0,1,1.25.67h0a1,1,0,0,1-.66,1.25h0a.92.92,0,0,1-.29,0h0A1,1,0,0,1,302.26,53Zm-9.47-.66a1,1,0,0,1-.33-1.38h0a1,1,0,0,1,1.37-.34h0a1,1,0,0,1,.34,1.38h0a1,1,0,0,1-.86.48h0A1.1,1.1,0,0,1,292.79,52.34Zm14.13-1.44a1,1,0,0,1,.1-1.41h0a1,1,0,0,1,1.41.1h0a1,1,0,0,1-.1,1.41h0a1,1,0,0,1-.65.24h0A1,1,0,0,1,306.92,50.9Zm-18.15-2.33a1,1,0,0,1,.25-1.39h0a1,1,0,0,1,1.39.24h0a1,1,0,0,1-.25,1.39h0a1,1,0,0,1-.57.19h0A1,1,0,0,1,288.77,48.57Zm21.56-1.49a1,1,0,0,1-.48-1.33h0a1,1,0,0,1,1.33-.48h0a1,1,0,0,1,.48,1.33h0a1,1,0,0,1-.9.58h0A.91.91,0,0,1,310.33,47.08ZM286.6,43.49h0a1,1,0,0,1,.81-1.17h0a1,1,0,0,1,1.17.79h0a1,1,0,0,1-.79,1.17h0a.65.65,0,0,1-.19,0h0A1,1,0,0,1,286.6,43.49Zm25.29-1.28a1,1,0,0,1-1-1h0v0h0a1,1,0,0,1,1-1h0a1,1,0,0,1,1,1h0v0h0v0h0a1,1,0,0,1-1,1h0Zm-1-1Zm2,0Zm-25.45-2a1,1,0,0,1-.75-1.2h0a1,1,0,0,1,1.2-.75h0a1,1,0,0,1,.75,1.2h0a1,1,0,0,1-1,.78h0A.85.85,0,0,1,287.46,39.18ZM310,36.55a1,1,0,0,1,.52-1.32h0a1,1,0,0,1,1.31.53h0a1,1,0,0,1-.52,1.32h0a1.14,1.14,0,0,1-.4.08h0A1,1,0,0,1,310,36.55Zm-20.79-2.17a1,1,0,0,1-.18-1.4h0a1,1,0,0,1,1.4-.19h0a1,1,0,0,1,.19,1.39h0a1,1,0,0,1-.8.4h0A1,1,0,0,1,289.23,34.38Zm18.08-1.66h0a1,1,0,0,1,0-1.42h0a1,1,0,0,1,1.41-.05h0a1,1,0,0,1,.05,1.42h0A1,1,0,0,1,308,33h0A1.08,1.08,0,0,1,307.31,32.72Zm-14.5-2a1,1,0,0,1,.39-1.36h0a1,1,0,0,1,1.36.39h0a1,1,0,0,1-.38,1.36h0a1.12,1.12,0,0,1-.49.13h0A1,1,0,0,1,292.81,30.72Zm10.49-.41a1,1,0,0,1-.62-1.27h0a1,1,0,0,1,1.27-.63h0a1,1,0,0,1,.63,1.27h0a1,1,0,0,1-.95.68h0A1.26,1.26,0,0,1,303.3,30.31Zm-5.74-1.48a1,1,0,0,1,.92-1.08h0a1,1,0,0,1,1.08.91h0a1,1,0,0,1-.92,1.08h-.08A1,1,0,0,1,297.56,28.83Z" class="cls-1"/>
    <path d="M233.58,97.74a69.77,69.77,0,0,1-2.89-8.26,35.69,35.69,0,0,1-.91-8.91c.16-4.74,4.86-9.83,10.2-11.37a3.56,3.56,0,0,0,2.83-2.68c1.38-4.4,4.43-7.5,9-8.21,4-.64,8.15-.38,12.24-.51,7.48,3,14.94,6.05,22.46,9a66.69,66.69,0,0,0,8.82,2.75c1.69.39,2.06,1,1.65,2.59s-.64,3.06-1.13,5.46l6.87-2.65c-1.37,4.09-3.14,7.71-6.78,10.29a7.26,7.26,0,0,0-2.59,3.62c-.82,2.88-1.19,5.88-1.74,8.83h-.87l-2.28,0a34.18,34.18,0,0,1-2.5-3.81c-2.51-5.08-1.43-5.65-8.1-4.2-9.36,1.24-18.46.63-27-3.88-1.62-.86-2.64-.07-3.56,1.25a77.92,77.92,0,0,1-5.8,7.79c-1.18,1.3-3.09,1.93-4.67,2.86h-1.89Z" class="cls-2"/>
    <path d="M203.15,96.81c-.17-2.13-.45-4.26-.5-6.39-.1-4.51.31-9-.18-13.51-.84-7.61-3.72-14.46-9.63-19.64-2.07-1.81-4.47-3.26-6.73-4.88-1-5.42-4.46-8.93-8.87-11.76a19.75,19.75,0,0,0-12.51-1.21c-7,1.77-13.36,7.6-12.88,17.25-7.95,2.23-12,8-13.5,15.62-1.55,8.07-.27,16.06,1.74,23.94q1.66,7.38,3.32,14.76c.2,2.88.41,5.77.61,8.65l.8.13a8.6,8.6,0,0,0,.92-2.41,20.82,20.82,0,0,0-.38-3.5l0,0c-.16-.49-.33-1-.49-1.47a27,27,0,0,1,0-14.77,8.39,8.39,0,0,1,2.32-3.71c6.41-5.74,11.42-12.3,13-21.06.3.09.6.09.69.23,5.11,8.09,12.87,12.68,21.41,16.25a82.26,82.26,0,0,1,8.2,3.77,24.7,24.7,0,0,1,4,3.54,42.66,42.66,0,0,1,1.72,6.25,77.05,77.05,0,0,1,.26,8l2,5.17,1-.28c-.22-1.62-.44-3.23-.65-4.84a5.53,5.53,0,0,1,1.61-5.33C202.82,103.33,203,100,203.15,96.81Z" class="cls-3"/>
    <path d="M140.09,96.23q1.66,7.38,3.32,14.76c-4.86.85-8.79-3.85-7.41-9.14C136.59,99.55,136.9,96.76,140.09,96.23Z" class="cls-2"/>
    <path d="M204.44,109c-1.56,1.53-3.23,2.76-5.61,2a5.53,5.53,0,0,1,1.61-5.33c2.38-2.36,2.6-5.67,2.71-8.88l1.77,1.86A11.52,11.52,0,0,1,204.44,109Z" class="cls-2"/>
    <path d="M91.47,60.93c-1.33.47-2.72.83-4,1.43a24.08,24.08,0,0,1-18.71.84A69.86,69.86,0,0,0,61,60.88c-6.64-1.46-9.95,1.31-10,8.16,0,3,.19,6-.07,9-.2,2.35-.82,2.46-2.83,1C43.92,65.9,45.84,54,55.53,43.81c4.28-4.49,9.82-6.56,16-7.05,4.09.45,8.26.51,12.25,1.4,10.62,2.38,20,12.51,20.61,25a114.24,114.24,0,0,1,0,11.85c-.1,1.67-1,3.3-1.46,5-1.5,1.13-2.39.49-2.7-1.08-.41-2.08-.65-4.2-.93-6.3-.38-2.8-.43-5.69-1.16-8.39C97.12,60.75,95,59.9,91.47,60.93Z" class="cls-2"/>
    <path d="M109.69,87.12c0-3.3-1.2-4.88-4.33-6-.87-.31-1.68-.78-2.52-1.17-1.5,1.13-2.39.49-2.7-1.08-.41-2.08-.65-4.2-.93-6.3-.38-2.8-.43-5.69-1.16-8.39-.93-3.45-3-4.3-6.58-3.27-1.33.47-2.72.83-4,1.43a24,24,0,0,1-18.71.84A69.86,69.86,0,0,0,61,60.88c-6.64-1.46-9.95,1.31-10,8.16,0,3,.19,6-.07,9-.2,2.35-.82,2.46-2.83,1-2.27.72-5,.23-6.7,2.43-1.94,3.27-1.41,6.88-1.4,10.41,1.19,2.87,2.9,5,6.3,5.47.85.13,2,1.69,2.13,2.73a49.5,49.5,0,0,0,5.9,16.25c0,3.91.05,7.83.07,11.74q-.09,4.6-.19,9.2l20.39,19.48,21.16-20.39-.57-8.22-2.51,1.69,2.51-1.69c0-2.54,0-5.08.13-7.61.09-1.73,0-3.68.73-5.13a51.11,51.11,0,0,0,5.31-15.68,2.87,2.87,0,0,1,2.83-2.65c3.34-.4,5.29-2.76,5.41-6.15C109.72,89.66,109.7,88.39,109.69,87.12Z" class="cls-3"/>
    <g class="cls-4">
        <path d="M241.67,99.45a8.67,8.67,0,0,1,16.06-2.15c2.15-.93,6.26-1.62,9.56,0a8.67,8.67,0,0,1,16,2.16L288,97a23.41,23.41,0,0,1-2-3.14c-2.51-5.08-1.43-5.65-8.1-4.2,0,.86,0,1.71,0,2.56h0c0-.85,0-1.7,0-2.56-9.36,1.24-18.46.63-27-3.88-1.62-.86-2.64-.07-3.56,1.25a77.92,77.92,0,0,1-5.8,7.79,13.43,13.43,0,0,1-3.91,2.44Z" class="cls-2"/>
        <path d="M291.59,97.66l-8,4a8.67,8.67,0,1,1-17.05-2.45c-3-1.61-6.65-.49-8,.06a8.66,8.66,0,1,1-17.06,2.4l-7.87-4c-.51.55-1,1.11-1.55,1.66-2.1,2.18-1.29,4.92-1.31,7.45,0,3.47,1.63,5,5,5.68a3.73,3.73,0,0,1,2.54,2.18,38.36,38.36,0,0,0,7.26,16.3c.47.46.95.9,1.44,1.34-.49-.44-1-.88-1.44-1.34l0,7.66-.12,7.52,17.38,16.52,17.5-17q-.09-3.37-.2-6.75l0-7.48a3.55,3.55,0,0,1,.38-1.11,33.52,33.52,0,0,0,6.73-15.52c.28-1.61,1.36-2.16,3-2.52a6.72,6.72,0,0,0,3.8-2.38C296.4,106.34,295.09,100.29,291.59,97.66Zm-16.67,26a30.51,30.51,0,0,0,2.81-9.83h0A30.51,30.51,0,0,1,274.92,123.69Z" class="cls-2"/>
    </g>
    <path d="M181.56,145.48c-.19-3.47-.56-6.27-.86-9.74h0l-.24-5.2h0c7.95-4.39,13.6-10.67,16.08-19.57a77.05,77.05,0,0,0-.26-8,42.66,42.66,0,0,0-1.72-6.25,24.7,24.7,0,0,0-4-3.54,82.26,82.26,0,0,0-8.2-3.77c-8.54-3.57-16.3-8.16-21.41-16.25-.09-.14-.39-.14-.69-.23-1.6,8.68-6.54,15.21-12.87,20.91a10,10,0,0,0-2.49,3.86,27,27,0,0,0,0,14.77c.16.49.33,1,.49,1.47l0,0a33.34,33.34,0,0,0,16.57,17.24h0l-.33,5.18c-.23,3.07-.54,6.13-.66,9.2l-9.33,3.07,4.21,1.58a43.54,43.54,0,0,0,30.83-.09l3.6-1.38Zm-19-14.47c.33-.19.66-.45,1-.64-.33.19-.66.45-1,.64l-.35.05Z" class="cls-2"/>
    <path d="M144.89,112.42c.16.49.33,1,.49,1.47C145.22,113.4,145.05,112.91,144.89,112.42Z" class="cls-5"/>
    <path d="M235.92,206.29l-10.25-35.36a26.19,26.19,0,0,0-18.24-18l-17.18-4.31-3.6,1.38a43.54,43.54,0,0,1-30.83.09l-4.21-1.58-16.27,4.54a26.17,26.17,0,0,0-18.56,18l-10.19,35.15Z" class="cls-3"/>
    <path d="M317.31,168.82a26.2,26.2,0,0,0-18.24-18l-18.78-5.13-17.5,17-17.38-16.52L227,151a26.09,26.09,0,0,0-11.1,6.05,26.16,26.16,0,0,1,9.78,13.9l10.26,35.36h92.25Z" class="cls-2"/>
    <path d="M116.78,171.14a26.18,26.18,0,0,1,17.28-17.67,26.19,26.19,0,0,0-14.72-10.6l-23.51-6.5L74.67,156.76,54.28,137.28l-22.54,5.78a26.19,26.19,0,0,0-18.65,18.07L0,206.29H106.59Z" class="cls-2"/>
</svg>
