<svg xmlns="http://www.w3.org/2000/svg" xmlns:xlink="http://www.w3.org/1999/xlink" id="Layer_1" data-name="Layer 1" viewBox="0 0 1500 208">
    <defs>
        <style>
            .cls-1{fill:url(#linear-gradient);}.cls-11,.cls-2,.cls-5,.cls-6,.cls-8{opacity:0.35;}.cls-11,.cls-12,.cls-3,.cls-4,.cls-5,.cls-6,.cls-7,.cls-8{fill:none;stroke:#fff;stroke-miterlimit:10;}.cls-11,.cls-12,.cls-3,.cls-4,.cls-7{stroke-linecap:round;stroke-width:2px;}.cls-4{stroke-dasharray:0 5.01;}.cls-5,.cls-6{stroke-width:1.5px;}.cls-5{stroke-dasharray:8 8;}.cls-7{stroke-dasharray:0 5.08;}.cls-10,.cls-14,.cls-9{fill:#fff;}.cls-9{opacity:0.4;}.cls-10,.cls-13{opacity:0.25;}.cls-11{stroke-dasharray:0 5;}.cls-12{stroke-dasharray:0 5.14;}
        </style>
        <linearGradient id="linear-gradient" x2="1500" y1="104" y2="104" gradientUnits="userSpaceOnUse">
            <stop offset="0" stop-color="#a0c860"/>
            <stop offset="1" stop-color="#e2e665"/>
        </linearGradient>
    </defs>
    <title>
        website-headers-v02
    </title>
    <rect width="1500" height="208" class="cls-1"/>
    <g class="cls-2">
        <line x1="1342.39" x2="1342.39" y1="208" y2="208" class="cls-3"/>
        <line x1="1342.39" x2="1342.39" y1="202.99" y2="25.17" class="cls-4"/>
        <line x1="1342.39" x2="1342.39" y1="22.66" y2="22.66" class="cls-3"/>
    </g>
    <line x1="1203.88" x2="1434.56" y1="151.01" class="cls-5"/>
    <circle cx="1203.46" cy="150.6" r="36" class="cls-6"/>
    <g class="cls-2">
        <circle cx="1203.46" cy="150.6" r="22.65" class="cls-7"/>
    </g>
    <circle cx="1342.39" cy="14.83" r="4.17" class="cls-8"/>
    <path d="M1375.22,98h-9.7V69.9a23.58,23.58,0,1,0-47.16,0V98h-9.71V69.9a33.29,33.29,0,1,1,66.57,0Z" class="cls-9"/>
    <path d="M1313.51,98H1291v64.14h101.94V98Zm35.71,48a7.11,7.11,0,0,1-14.22,0V130.06a7.11,7.11,0,0,1,14.22,0Z" class="cls-10"/>
    <rect width="101.94" height="15.26" x="1290.97" y="162.13" class="cls-9"/>
    <line x1="132.34" x2="385.01" y1="206.98" y2="44.19" class="cls-11"/>
    <line x1="329.73" x2="186.34" y1="205.74" class="cls-5"/>
    <circle cx="386.19" cy="42.82" r="19.5" class="cls-6"/>
    <g class="cls-2">
        <path d="M398.45,43.06a12.27,12.27,0,1,1-12-12.51A12.27,12.27,0,0,1,398.45,43.06Z" class="cls-12"/>
    </g>
    <path d="M320.13,99.59a71.68,71.68,0,0,1-2.9-8.26,35.68,35.68,0,0,1-.9-8.91c.15-4.74,4.85-9.83,10.19-11.37a3.56,3.56,0,0,0,2.83-2.68c1.38-4.4,4.43-7.5,9-8.21,4-.64,8.16-.38,12.24-.51,7.49,3,14.95,6.05,22.47,9a66.09,66.09,0,0,0,8.81,2.75c1.69.39,2.06,1,1.66,2.59s-.65,3.06-1.14,5.46l6.88-2.65c-1.38,4.09-3.14,7.71-6.79,10.29a7.18,7.18,0,0,0-2.58,3.62c-.83,2.87-1.2,5.88-1.75,8.83h-.86l-2.29,0a37.24,37.24,0,0,1-2.5-3.81c-2.51-5.08-1.43-5.65-8.09-4.2-9.37,1.23-18.47.63-27-3.88-1.62-.86-2.63-.07-3.56,1.25A79.4,79.4,0,0,1,328,96.71c-1.18,1.3-3.09,1.93-4.68,2.86h-1.89Z" class="cls-9"/>
    <path d="M289.7,98.66c-.18-2.13-.46-4.26-.51-6.39-.09-4.51.31-9-.18-13.51-.83-7.61-3.71-14.46-9.63-19.64-2.07-1.82-4.47-3.26-6.72-4.88-1-5.42-4.47-8.94-8.87-11.77a19.84,19.84,0,0,0-12.52-1.2c-7,1.77-13.36,7.6-12.87,17.25-8,2.23-12,8-13.51,15.62-1.55,8.07-.26,16.06,1.75,23.94q1.65,7.38,3.32,14.76l.6,8.65.8.13a8.3,8.3,0,0,0,.92-2.41,18.93,18.93,0,0,0-.38-3.5l0,0c-.16-.49-.32-1-.49-1.47a27,27,0,0,1,0-14.77,8.41,8.41,0,0,1,2.33-3.71c6.41-5.74,11.42-12.3,13-21.06.29.09.59.09.68.23,5.11,8.09,12.87,12.68,21.42,16.25A82.09,82.09,0,0,1,277.09,95c1.52.85,2.69,2.34,4,3.54a44,44,0,0,1,1.72,6.25,77.05,77.05,0,0,1,.25,8L285,118l1-.28c-.21-1.62-.43-3.23-.65-4.84a5.58,5.58,0,0,1,1.61-5.33C289.37,105.18,289.58,101.87,289.7,98.66Z" class="cls-10"/>
    <path d="M226.64,98.08q1.65,7.38,3.32,14.76c-4.87.85-8.79-3.85-7.42-9.14C223.14,101.4,223.45,98.61,226.64,98.08Z" class="cls-9"/>
    <path d="M291,110.89c-1.56,1.53-3.23,2.76-5.61,2a5.56,5.56,0,0,1,1.61-5.32c2.39-2.36,2.6-5.67,2.72-8.88l1.76,1.86A11.46,11.46,0,0,1,291,110.89Z" class="cls-9"/>
    <path d="M178,62.78a41.23,41.23,0,0,0-4,1.43,24,24,0,0,1-18.71.83,72.19,72.19,0,0,0-7.73-2.31c-6.63-1.46-10,1.31-10,8.16,0,3,.19,6-.06,9-.2,2.35-.82,2.46-2.84,1-4.24-13.15-2.32-25.07,7.37-35.24,4.27-4.49,9.81-6.56,16-7,4.09.45,8.26.51,12.25,1.4,10.61,2.38,20,12.51,20.6,25a111.53,111.53,0,0,1,0,11.85c-.09,1.67-1,3.3-1.46,5-1.49,1.13-2.39.49-2.7-1.08-.41-2.08-.64-4.2-.93-6.3a64.64,64.64,0,0,0-1.16-8.39C183.66,62.6,181.56,61.74,178,62.78Z" class="cls-9"/>
    <path d="M196.24,89c0-3.3-1.2-4.88-4.33-6-.87-.31-1.69-.78-2.53-1.17-1.49,1.13-2.39.49-2.7-1.08-.41-2.08-.64-4.2-.93-6.3a64.64,64.64,0,0,0-1.16-8.39c-.93-3.45-3-4.31-6.57-3.27a41.23,41.23,0,0,0-4,1.43,24,24,0,0,1-18.71.83,72.19,72.19,0,0,0-7.73-2.31c-6.63-1.46-10,1.31-10,8.16,0,3,.19,6-.06,9-.2,2.35-.82,2.46-2.84,1-2.26.72-5,.23-6.7,2.43-1.93,3.27-1.41,6.88-1.39,10.41,1.19,2.87,2.9,5,6.29,5.47.85.13,2,1.69,2.13,2.73a49.5,49.5,0,0,0,5.9,16.25c0,3.91.05,7.83.07,11.74l-.18,9.2,20.39,19.48,21.15-20.39L181.8,130l-2.5,1.69,2.5-1.69c0-2.54,0-5.08.13-7.61.09-1.73,0-3.68.73-5.13A51.13,51.13,0,0,0,188,101.58a2.86,2.86,0,0,1,2.83-2.65c3.34-.4,5.28-2.76,5.41-6.15C196.26,91.51,196.25,90.24,196.24,89Z" class="cls-10"/>
    <g class="cls-13">
        <path d="M328.21,101.3a8.67,8.67,0,0,1,16.06-2.15c2.15-.93,6.26-1.62,9.56,0a8.68,8.68,0,0,1,16.06,2.16l4.63-2.41a24.43,24.43,0,0,1-2-3.14c-2.51-5.08-1.43-5.65-8.09-4.2,0,.86,0,1.71,0,2.56h0l0-2.56c-9.37,1.23-18.47.63-27-3.88-1.62-.86-2.63-.07-3.56,1.25A79.4,79.4,0,0,1,328,96.71a13.78,13.78,0,0,1-3.91,2.44Z" class="cls-9"/>
        <path d="M378.13,99.51l-8,4a8.67,8.67,0,1,1-17.05-2.45c-3-1.61-6.65-.49-8,.06a8.66,8.66,0,1,1-17.06,2.4l-7.86-4-1.55,1.66c-2.1,2.18-1.3,4.92-1.32,7.45,0,3.47,1.63,5,5,5.68a3.78,3.78,0,0,1,2.54,2.17,38.32,38.32,0,0,0,7.25,16.31c.48.46,1,.9,1.44,1.34-.48-.44-1-.88-1.44-1.34l0,7.66c0,2.51-.07,5-.11,7.52l17.37,16.52,17.51-17q-.1-3.37-.2-6.75l-.05-7.48a3.84,3.84,0,0,1,.39-1.11,33.62,33.62,0,0,0,6.73-15.52c.27-1.61,1.36-2.16,3-2.53a6.62,6.62,0,0,0,3.8-2.37C382.94,108.19,381.64,102.14,378.13,99.51Zm-16.66,26a30.77,30.77,0,0,0,2.81-9.83h0A30.77,30.77,0,0,1,361.47,125.54Z" class="cls-9"/>
    </g>
    <path d="M268.11,147.33c-.2-3.47-.57-6.27-.86-9.74h0c-.09-1.73-.17-3.46-.25-5.2h0c7.95-4.39,13.61-10.67,16.08-19.57a77.05,77.05,0,0,0-.25-8,42.71,42.71,0,0,0-1.73-6.25c-1.32-1.2-2.49-2.69-4-3.54a82.09,82.09,0,0,0-8.19-3.77c-8.55-3.57-16.31-8.16-21.42-16.25-.09-.14-.39-.14-.68-.23-1.61,8.68-6.54,15.21-12.87,20.91a10.06,10.06,0,0,0-2.5,3.86,27,27,0,0,0,0,14.77c.17.49.33,1,.49,1.47l0,0A33.42,33.42,0,0,0,248.47,133h0l-.33,5.18c-.23,3.07-.54,6.13-.66,9.2l-9.32,3.07,4.2,1.58a43.57,43.57,0,0,0,30.84-.09l3.59-1.38Zm-19-14.47c.33-.19.65-.45,1-.64-.33.19-.65.45-1,.64l-.36,0Z" class="cls-9"/>
    <path d="M231.43,114.27c.17.49.33,1,.49,1.47C231.76,115.25,231.6,114.76,231.43,114.27Z" class="cls-14"/>
    <path d="M312.21,172.78a26.17,26.17,0,0,0-18.24-18l-17.18-4.31-3.59,1.38a43.57,43.57,0,0,1-30.84.09l-4.2-1.58-16.28,4.54A26.18,26.18,0,0,0,203.32,173l-10.8,37.26H323.08Z" class="cls-10"/>
    <path d="M403.85,170.66a26.19,26.19,0,0,0-18.24-18l-18.77-5.13-17.51,17L332,148l-18.44,4.79a26.15,26.15,0,0,0-11.1,6,26.18,26.18,0,0,1,9.79,13.9l10.25,35.36h92.26Z" class="cls-9"/>
    <path d="M203.32,173a26.18,26.18,0,0,1,17.29-17.67,26.19,26.19,0,0,0-14.72-10.6l-23.52-6.5-21.15,20.39-20.39-19.48-22.55,5.78A26.18,26.18,0,0,0,99.64,163l-13.1,45.16H193.13Z" class="cls-9"/>
</svg>
